<?xml version="1.0" encoding="UTF-8" standalone="no"?><svg xmlns="http://www.w3.org/2000/svg" xmlns:xlink="http://www.w3.org/1999/xlink" contentStyleType="text/css" height="671px" preserveAspectRatio="none" style="width:1283px;height:671px;background:#FFFFFF;" version="1.1" viewBox="0 0 1283 671" width="1283px" zoomAndPan="magnify"><defs/><g><!--MD5=[6985bcf30320a8d061b036ceefa059e0]
class CriteriaStatement--><g id="elem_CriteriaStatement"><rect codeLine="3" fill="#F1F1F1" height="65.6094" id="CriteriaStatement" rx="2.5" ry="2.5" style="stroke:#181818;stroke-width:0.5;" width="142" x="633.5" y="133"/><ellipse cx="648.5" cy="149" fill="#A9DCDF" rx="11" ry="11" style="stroke:#181818;stroke-width:1.0;"/><path d="M650.6875,150.7656 L646.5469,150.7656 L646.125,151.7969 L646.5469,151.7969 Q647.1563,151.7969 647.4219,152.0313 Q647.6875,152.2656 647.6875,152.6563 Q647.6875,153.0313 647.4219,153.2656 Q647.1563,153.5 646.5469,153.5 L644.25,153.5 Q643.6406,153.5 643.3906,153.2656 Q643.125,153.0313 643.125,152.6406 Q643.125,152.2656 643.4063,152.0313 Q643.6719,151.7813 644.2969,151.7969 L646.9688,145.1406 L645.8594,145.1406 Q645.25,145.1406 644.9844,144.9063 Q644.7188,144.6719 644.7188,144.2813 Q644.7188,143.9063 644.9844,143.6719 Q645.25,143.4375 645.8594,143.4375 L649.5313,143.4375 L652.9219,151.7969 Q653.5156,151.7969 653.7031,151.9375 Q654.0938,152.2031 654.0938,152.6563 Q654.0938,153.0313 653.8281,153.2656 Q653.5781,153.5 652.9688,153.5 L650.6719,153.5 Q650.0625,153.5 649.7969,153.2656 Q649.5313,153.0313 649.5313,152.6406 Q649.5313,152.2656 649.7969,152.0313 Q650.0625,151.7969 650.6719,151.7969 L651.0938,151.7969 L650.6875,150.7656 Z M649.9688,149.0625 L648.6094,145.6875 L647.2344,149.0625 L649.9688,149.0625 Z " fill="#000000"/><text fill="#000000" font-family="sans-serif" font-size="14" font-style="italic" lengthAdjust="spacing" textLength="110" x="662.5" y="154.7285">CriteriaStatement</text><line style="stroke:#181818;stroke-width:0.5;" x1="634.5" x2="774.5" y1="165" y2="165"/><text fill="#000000" font-family="sans-serif" font-size="14" lengthAdjust="spacing" textLength="109" x="639.5" y="183.5332">Criterion[] criteria</text><line style="stroke:#181818;stroke-width:0.5;" x1="634.5" x2="774.5" y1="190.6094" y2="190.6094"/></g><!--MD5=[a61a298976b7d1d94498f45c2ebfa10b]
class Statement--><g id="elem_Statement"><rect codeLine="10" fill="#F1F1F1" height="65.6094" id="Statement" rx="2.5" ry="2.5" style="stroke:#181818;stroke-width:0.5;" width="110" x="909.5" y="7"/><ellipse cx="930.8" cy="23" fill="#A9DCDF" rx="11" ry="11" style="stroke:#181818;stroke-width:1.0;"/><path d="M932.9875,24.7656 L928.8469,24.7656 L928.425,25.7969 L928.8469,25.7969 Q929.4563,25.7969 929.7219,26.0313 Q929.9875,26.2656 929.9875,26.6563 Q929.9875,27.0313 929.7219,27.2656 Q929.4563,27.5 928.8469,27.5 L926.55,27.5 Q925.9406,27.5 925.6906,27.2656 Q925.425,27.0313 925.425,26.6406 Q925.425,26.2656 925.7063,26.0313 Q925.9719,25.7813 926.5969,25.7969 L929.2688,19.1406 L928.1594,19.1406 Q927.55,19.1406 927.2844,18.9063 Q927.0188,18.6719 927.0188,18.2813 Q927.0188,17.9063 927.2844,17.6719 Q927.55,17.4375 928.1594,17.4375 L931.8313,17.4375 L935.2219,25.7969 Q935.8156,25.7969 936.0031,25.9375 Q936.3938,26.2031 936.3938,26.6563 Q936.3938,27.0313 936.1281,27.2656 Q935.8781,27.5 935.2688,27.5 L932.9719,27.5 Q932.3625,27.5 932.0969,27.2656 Q931.8313,27.0313 931.8313,26.6406 Q931.8313,26.2656 932.0969,26.0313 Q932.3625,25.7969 932.9719,25.7969 L933.3938,25.7969 L932.9875,24.7656 Z M932.2688,23.0625 L930.9094,19.6875 L929.5344,23.0625 L932.2688,23.0625 Z " fill="#000000"/><text fill="#000000" font-family="sans-serif" font-size="14" font-style="italic" lengthAdjust="spacing" textLength="64" x="946.2" y="28.7285">Statement</text><line style="stroke:#181818;stroke-width:0.5;" x1="910.5" x2="1018.5" y1="39" y2="39"/><ellipse cx="920.5" cy="53.3047" fill="none" rx="3" ry="3" style="stroke:#038048;stroke-width:1.0;"/><text fill="#000000" font-family="sans-serif" font-size="14" lengthAdjust="spacing" textLength="84" x="929.5" y="57.5332">String source</text><line style="stroke:#181818;stroke-width:0.5;" x1="910.5" x2="1018.5" y1="64.6094" y2="64.6094"/></g><!--MD5=[8ff17cdb83165c2c766dbd5ed84aa446]
class Criterion--><g id="elem_Criterion"><rect codeLine="15" fill="#F1F1F1" height="65.6094" id="Criterion" rx="2.5" ry="2.5" style="stroke:#181818;stroke-width:0.5;" width="175" x="191" y="294"/><ellipse cx="247.25" cy="310" fill="#A9DCDF" rx="11" ry="11" style="stroke:#181818;stroke-width:1.0;"/><path d="M249.4375,311.7656 L245.2969,311.7656 L244.875,312.7969 L245.2969,312.7969 Q245.9063,312.7969 246.1719,313.0313 Q246.4375,313.2656 246.4375,313.6563 Q246.4375,314.0313 246.1719,314.2656 Q245.9063,314.5 245.2969,314.5 L243,314.5 Q242.3906,314.5 242.1406,314.2656 Q241.875,314.0313 241.875,313.6406 Q241.875,313.2656 242.1563,313.0313 Q242.4219,312.7813 243.0469,312.7969 L245.7188,306.1406 L244.6094,306.1406 Q244,306.1406 243.7344,305.9063 Q243.4688,305.6719 243.4688,305.2813 Q243.4688,304.9063 243.7344,304.6719 Q244,304.4375 244.6094,304.4375 L248.2813,304.4375 L251.6719,312.7969 Q252.2656,312.7969 252.4531,312.9375 Q252.8438,313.2031 252.8438,313.6563 Q252.8438,314.0313 252.5781,314.2656 Q252.3281,314.5 251.7188,314.5 L249.4219,314.5 Q248.8125,314.5 248.5469,314.2656 Q248.2813,314.0313 248.2813,313.6406 Q248.2813,313.2656 248.5469,313.0313 Q248.8125,312.7969 249.4219,312.7969 L249.8438,312.7969 L249.4375,311.7656 Z M248.7188,310.0625 L247.3594,306.6875 L245.9844,310.0625 L248.7188,310.0625 Z " fill="#000000"/><text fill="#000000" font-family="sans-serif" font-size="14" font-style="italic" lengthAdjust="spacing" textLength="54" x="267.75" y="315.7285">Criterion</text><line style="stroke:#181818;stroke-width:0.5;" x1="192" x2="365" y1="326" y2="326"/><ellipse cx="202" cy="340.3047" fill="none" rx="3" ry="3" style="stroke:#038048;stroke-width:1.0;"/><text fill="#000000" font-family="sans-serif" font-size="14" lengthAdjust="spacing" textLength="149" x="211" y="344.5332">String criterionOperator</text><line style="stroke:#181818;stroke-width:0.5;" x1="192" x2="365" y1="351.6094" y2="351.6094"/></g><!--MD5=[f205ab4ecfb97ebe00039d74dda09571]
class CriterionCompare--><g id="elem_CriterionCompare"><rect codeLine="19" fill="#F1F1F1" height="83.2188" id="CriterionCompare" rx="2.5" ry="2.5" style="stroke:#181818;stroke-width:0.5;" width="156" x="98.5" y="464"/><ellipse cx="118.9" cy="480" fill="#A9DCDF" rx="11" ry="11" style="stroke:#181818;stroke-width:1.0;"/><path d="M121.0875,481.7656 L116.9469,481.7656 L116.525,482.7969 L116.9469,482.7969 Q117.5563,482.7969 117.8219,483.0313 Q118.0875,483.2656 118.0875,483.6563 Q118.0875,484.0313 117.8219,484.2656 Q117.5563,484.5 116.9469,484.5 L114.65,484.5 Q114.0406,484.5 113.7906,484.2656 Q113.525,484.0313 113.525,483.6406 Q113.525,483.2656 113.8063,483.0313 Q114.0719,482.7813 114.6969,482.7969 L117.3688,476.1406 L116.2594,476.1406 Q115.65,476.1406 115.3844,475.9063 Q115.1188,475.6719 115.1188,475.2813 Q115.1188,474.9063 115.3844,474.6719 Q115.65,474.4375 116.2594,474.4375 L119.9313,474.4375 L123.3219,482.7969 Q123.9156,482.7969 124.1031,482.9375 Q124.4938,483.2031 124.4938,483.6563 Q124.4938,484.0313 124.2281,484.2656 Q123.9781,484.5 123.3688,484.5 L121.0719,484.5 Q120.4625,484.5 120.1969,484.2656 Q119.9313,484.0313 119.9313,483.6406 Q119.9313,483.2656 120.1969,483.0313 Q120.4625,482.7969 121.0719,482.7969 L121.4938,482.7969 L121.0875,481.7656 Z M120.3688,480.0625 L119.0094,476.6875 L117.6344,480.0625 L120.3688,480.0625 Z " fill="#000000"/><text fill="#000000" font-family="sans-serif" font-size="14" font-style="italic" lengthAdjust="spacing" textLength="112" x="134.1" y="485.7285">CriterionCompare</text><line style="stroke:#181818;stroke-width:0.5;" x1="99.5" x2="253.5" y1="496" y2="496"/><ellipse cx="109.5" cy="510.3047" fill="none" rx="3" ry="3" style="stroke:#038048;stroke-width:1.0;"/><text fill="#000000" font-family="sans-serif" font-size="14" lengthAdjust="spacing" textLength="107" x="118.5" y="514.5332">Object? firstField</text><ellipse cx="109.5" cy="527.9141" fill="none" rx="3" ry="3" style="stroke:#038048;stroke-width:1.0;"/><text fill="#000000" font-family="sans-serif" font-size="14" lengthAdjust="spacing" textLength="130" x="118.5" y="532.1426">Object? secondField</text><line style="stroke:#181818;stroke-width:0.5;" x1="99.5" x2="253.5" y1="539.2188" y2="539.2188"/></g><!--MD5=[dd047b06638785db7c5e5d57995e2c0b]
class Equals--><g id="elem_Equals"><rect codeLine="25" fill="#F1F1F1" height="48" id="Equals" rx="2.5" ry="2.5" style="stroke:#181818;stroke-width:0.5;" width="75" x="7" y="616"/><ellipse cx="22" cy="632" fill="#ADD1B2" rx="11" ry="11" style="stroke:#181818;stroke-width:1.0;"/><path d="M24.7656,627.875 Q24.9219,627.6563 25.1094,627.5469 Q25.2969,627.4375 25.5156,627.4375 Q25.8906,627.4375 26.125,627.7031 Q26.3594,627.9531 26.3594,628.5625 L26.3594,630.0156 Q26.3594,630.625 26.125,630.8906 Q25.8906,631.1563 25.5156,631.1563 Q25.1719,631.1563 24.9688,630.9531 Q24.7656,630.7656 24.6563,630.25 Q24.6094,629.8906 24.4219,629.7031 Q24.0938,629.3281 23.4844,629.1094 Q22.875,628.8906 22.25,628.8906 Q21.4844,628.8906 20.8438,629.2188 Q20.2188,629.5469 19.7188,630.2969 Q19.2344,631.0469 19.2344,632.0781 L19.2344,633.1719 Q19.2344,634.4063 20.125,635.2344 Q21.0156,636.0469 22.6094,636.0469 Q23.5469,636.0469 24.2031,635.7969 Q24.5938,635.6406 25.0156,635.2031 Q25.2813,634.9375 25.4219,634.8594 Q25.5781,634.7813 25.7813,634.7813 Q26.1094,634.7813 26.3594,635.0469 Q26.625,635.2969 26.625,635.6406 Q26.625,635.9844 26.2813,636.3906 Q25.7813,636.9688 24.9844,637.2969 Q23.9063,637.75 22.6094,637.75 Q21.0938,637.75 19.8906,637.125 Q18.9063,636.625 18.2188,635.5625 Q17.5313,634.4844 17.5313,633.2031 L17.5313,632.0469 Q17.5313,630.7188 18.1406,629.5781 Q18.7656,628.4219 19.8594,627.8125 Q20.9531,627.1875 22.1875,627.1875 Q22.9219,627.1875 23.5625,627.3594 Q24.2188,627.5156 24.7656,627.875 Z " fill="#000000"/><text fill="#000000" font-family="sans-serif" font-size="14" lengthAdjust="spacing" textLength="43" x="36" y="637.7285">Equals</text><line style="stroke:#181818;stroke-width:0.5;" x1="8" x2="81" y1="648" y2="648"/><line style="stroke:#181818;stroke-width:0.5;" x1="8" x2="81" y1="656" y2="656"/></g><!--MD5=[3a676806810cf2216953c47ea5ed2291]
class NotEquals--><g id="elem_NotEquals"><rect codeLine="29" fill="#F1F1F1" height="48" id="NotEquals" rx="2.5" ry="2.5" style="stroke:#181818;stroke-width:0.5;" width="96" x="117.5" y="616"/><ellipse cx="132.5" cy="632" fill="#ADD1B2" rx="11" ry="11" style="stroke:#181818;stroke-width:1.0;"/><path d="M135.2656,627.875 Q135.4219,627.6563 135.6094,627.5469 Q135.7969,627.4375 136.0156,627.4375 Q136.3906,627.4375 136.625,627.7031 Q136.8594,627.9531 136.8594,628.5625 L136.8594,630.0156 Q136.8594,630.625 136.625,630.8906 Q136.3906,631.1563 136.0156,631.1563 Q135.6719,631.1563 135.4688,630.9531 Q135.2656,630.7656 135.1563,630.25 Q135.1094,629.8906 134.9219,629.7031 Q134.5938,629.3281 133.9844,629.1094 Q133.375,628.8906 132.75,628.8906 Q131.9844,628.8906 131.3438,629.2188 Q130.7188,629.5469 130.2188,630.2969 Q129.7344,631.0469 129.7344,632.0781 L129.7344,633.1719 Q129.7344,634.4063 130.625,635.2344 Q131.5156,636.0469 133.1094,636.0469 Q134.0469,636.0469 134.7031,635.7969 Q135.0938,635.6406 135.5156,635.2031 Q135.7813,634.9375 135.9219,634.8594 Q136.0781,634.7813 136.2813,634.7813 Q136.6094,634.7813 136.8594,635.0469 Q137.125,635.2969 137.125,635.6406 Q137.125,635.9844 136.7813,636.3906 Q136.2813,636.9688 135.4844,637.2969 Q134.4063,637.75 133.1094,637.75 Q131.5938,637.75 130.3906,637.125 Q129.4063,636.625 128.7188,635.5625 Q128.0313,634.4844 128.0313,633.2031 L128.0313,632.0469 Q128.0313,630.7188 128.6406,629.5781 Q129.2656,628.4219 130.3594,627.8125 Q131.4531,627.1875 132.6875,627.1875 Q133.4219,627.1875 134.0625,627.3594 Q134.7188,627.5156 135.2656,627.875 Z " fill="#000000"/><text fill="#000000" font-family="sans-serif" font-size="14" lengthAdjust="spacing" textLength="64" x="146.5" y="637.7285">NotEquals</text><line style="stroke:#181818;stroke-width:0.5;" x1="118.5" x2="212.5" y1="648" y2="648"/><line style="stroke:#181818;stroke-width:0.5;" x1="118.5" x2="212.5" y1="656" y2="656"/></g><!--MD5=[378e3e2ca7e24a99f4479cd893fbde36]
class Like--><g id="elem_Like"><rect codeLine="33" fill="#F1F1F1" height="48" id="Like" rx="2.5" ry="2.5" style="stroke:#181818;stroke-width:0.5;" width="58" x="248.5" y="616"/><ellipse cx="263.5" cy="632" fill="#ADD1B2" rx="11" ry="11" style="stroke:#181818;stroke-width:1.0;"/><path d="M266.2656,627.875 Q266.4219,627.6563 266.6094,627.5469 Q266.7969,627.4375 267.0156,627.4375 Q267.3906,627.4375 267.625,627.7031 Q267.8594,627.9531 267.8594,628.5625 L267.8594,630.0156 Q267.8594,630.625 267.625,630.8906 Q267.3906,631.1563 267.0156,631.1563 Q266.6719,631.1563 266.4688,630.9531 Q266.2656,630.7656 266.1563,630.25 Q266.1094,629.8906 265.9219,629.7031 Q265.5938,629.3281 264.9844,629.1094 Q264.375,628.8906 263.75,628.8906 Q262.9844,628.8906 262.3438,629.2188 Q261.7188,629.5469 261.2188,630.2969 Q260.7344,631.0469 260.7344,632.0781 L260.7344,633.1719 Q260.7344,634.4063 261.625,635.2344 Q262.5156,636.0469 264.1094,636.0469 Q265.0469,636.0469 265.7031,635.7969 Q266.0938,635.6406 266.5156,635.2031 Q266.7813,634.9375 266.9219,634.8594 Q267.0781,634.7813 267.2813,634.7813 Q267.6094,634.7813 267.8594,635.0469 Q268.125,635.2969 268.125,635.6406 Q268.125,635.9844 267.7813,636.3906 Q267.2813,636.9688 266.4844,637.2969 Q265.4063,637.75 264.1094,637.75 Q262.5938,637.75 261.3906,637.125 Q260.4063,636.625 259.7188,635.5625 Q259.0313,634.4844 259.0313,633.2031 L259.0313,632.0469 Q259.0313,630.7188 259.6406,629.5781 Q260.2656,628.4219 261.3594,627.8125 Q262.4531,627.1875 263.6875,627.1875 Q264.4219,627.1875 265.0625,627.3594 Q265.7188,627.5156 266.2656,627.875 Z " fill="#000000"/><text fill="#000000" font-family="sans-serif" font-size="14" lengthAdjust="spacing" textLength="26" x="277.5" y="637.7285">Like</text><line style="stroke:#181818;stroke-width:0.5;" x1="249.5" x2="305.5" y1="648" y2="648"/><line style="stroke:#181818;stroke-width:0.5;" x1="249.5" x2="305.5" y1="656" y2="656"/></g><!--MD5=[933cf8221df3405ccace8994aa068925]
class CriterionLogic--><g id="elem_CriterionLogic"><rect codeLine="37" fill="#F1F1F1" height="65.6094" id="CriterionLogic" rx="2.5" ry="2.5" style="stroke:#181818;stroke-width:0.5;" width="139" x="301" y="472.5"/><ellipse cx="324.55" cy="488.5" fill="#A9DCDF" rx="11" ry="11" style="stroke:#181818;stroke-width:1.0;"/><path d="M326.7375,490.2656 L322.5969,490.2656 L322.175,491.2969 L322.5969,491.2969 Q323.2063,491.2969 323.4719,491.5313 Q323.7375,491.7656 323.7375,492.1563 Q323.7375,492.5313 323.4719,492.7656 Q323.2063,493 322.5969,493 L320.3,493 Q319.6906,493 319.4406,492.7656 Q319.175,492.5313 319.175,492.1406 Q319.175,491.7656 319.4563,491.5313 Q319.7219,491.2813 320.3469,491.2969 L323.0188,484.6406 L321.9094,484.6406 Q321.3,484.6406 321.0344,484.4063 Q320.7688,484.1719 320.7688,483.7813 Q320.7688,483.4063 321.0344,483.1719 Q321.3,482.9375 321.9094,482.9375 L325.5813,482.9375 L328.9719,491.2969 Q329.5656,491.2969 329.7531,491.4375 Q330.1438,491.7031 330.1438,492.1563 Q330.1438,492.5313 329.8781,492.7656 Q329.6281,493 329.0188,493 L326.7219,493 Q326.1125,493 325.8469,492.7656 Q325.5813,492.5313 325.5813,492.1406 Q325.5813,491.7656 325.8469,491.5313 Q326.1125,491.2969 326.7219,491.2969 L327.1438,491.2969 L326.7375,490.2656 Z M326.0188,488.5625 L324.6594,485.1875 L323.2844,488.5625 L326.0188,488.5625 Z " fill="#000000"/><text fill="#000000" font-family="sans-serif" font-size="14" font-style="italic" lengthAdjust="spacing" textLength="88" x="340.45" y="494.2285">CriterionLogic</text><line style="stroke:#181818;stroke-width:0.5;" x1="302" x2="439" y1="504.5" y2="504.5"/><ellipse cx="312" cy="518.8047" fill="none" rx="3" ry="3" style="stroke:#038048;stroke-width:1.0;"/><text fill="#000000" font-family="sans-serif" font-size="14" lengthAdjust="spacing" textLength="113" x="321" y="523.0332">Crtiterion[] criteria</text><line style="stroke:#181818;stroke-width:0.5;" x1="302" x2="439" y1="530.1094" y2="530.1094"/></g><!--MD5=[3be1097151cf8a36a9a9625c93fe8608]
class And--><g id="elem_And"><rect codeLine="42" fill="#F1F1F1" height="48" id="And" rx="2.5" ry="2.5" style="stroke:#181818;stroke-width:0.5;" width="57" x="342" y="616"/><ellipse cx="357" cy="632" fill="#ADD1B2" rx="11" ry="11" style="stroke:#181818;stroke-width:1.0;"/><path d="M359.7656,627.875 Q359.9219,627.6563 360.1094,627.5469 Q360.2969,627.4375 360.5156,627.4375 Q360.8906,627.4375 361.125,627.7031 Q361.3594,627.9531 361.3594,628.5625 L361.3594,630.0156 Q361.3594,630.625 361.125,630.8906 Q360.8906,631.1563 360.5156,631.1563 Q360.1719,631.1563 359.9688,630.9531 Q359.7656,630.7656 359.6563,630.25 Q359.6094,629.8906 359.4219,629.7031 Q359.0938,629.3281 358.4844,629.1094 Q357.875,628.8906 357.25,628.8906 Q356.4844,628.8906 355.8438,629.2188 Q355.2188,629.5469 354.7188,630.2969 Q354.2344,631.0469 354.2344,632.0781 L354.2344,633.1719 Q354.2344,634.4063 355.125,635.2344 Q356.0156,636.0469 357.6094,636.0469 Q358.5469,636.0469 359.2031,635.7969 Q359.5938,635.6406 360.0156,635.2031 Q360.2813,634.9375 360.4219,634.8594 Q360.5781,634.7813 360.7813,634.7813 Q361.1094,634.7813 361.3594,635.0469 Q361.625,635.2969 361.625,635.6406 Q361.625,635.9844 361.2813,636.3906 Q360.7813,636.9688 359.9844,637.2969 Q358.9063,637.75 357.6094,637.75 Q356.0938,637.75 354.8906,637.125 Q353.9063,636.625 353.2188,635.5625 Q352.5313,634.4844 352.5313,633.2031 L352.5313,632.0469 Q352.5313,630.7188 353.1406,629.5781 Q353.7656,628.4219 354.8594,627.8125 Q355.9531,627.1875 357.1875,627.1875 Q357.9219,627.1875 358.5625,627.3594 Q359.2188,627.5156 359.7656,627.875 Z " fill="#000000"/><text fill="#000000" font-family="sans-serif" font-size="14" lengthAdjust="spacing" textLength="25" x="371" y="637.7285">And</text><line style="stroke:#181818;stroke-width:0.5;" x1="343" x2="398" y1="648" y2="648"/><line style="stroke:#181818;stroke-width:0.5;" x1="343" x2="398" y1="656" y2="656"/></g><!--MD5=[23e6ed85c02a89921ce3312572b3f355]
class Or--><g id="elem_Or"><rect codeLine="45" fill="#F1F1F1" height="48" id="Or" rx="2.5" ry="2.5" style="stroke:#181818;stroke-width:0.5;" width="48" x="434.5" y="616"/><ellipse cx="449.5" cy="632" fill="#ADD1B2" rx="11" ry="11" style="stroke:#181818;stroke-width:1.0;"/><path d="M452.2656,627.875 Q452.4219,627.6563 452.6094,627.5469 Q452.7969,627.4375 453.0156,627.4375 Q453.3906,627.4375 453.625,627.7031 Q453.8594,627.9531 453.8594,628.5625 L453.8594,630.0156 Q453.8594,630.625 453.625,630.8906 Q453.3906,631.1563 453.0156,631.1563 Q452.6719,631.1563 452.4688,630.9531 Q452.2656,630.7656 452.1563,630.25 Q452.1094,629.8906 451.9219,629.7031 Q451.5938,629.3281 450.9844,629.1094 Q450.375,628.8906 449.75,628.8906 Q448.9844,628.8906 448.3438,629.2188 Q447.7188,629.5469 447.2188,630.2969 Q446.7344,631.0469 446.7344,632.0781 L446.7344,633.1719 Q446.7344,634.4063 447.625,635.2344 Q448.5156,636.0469 450.1094,636.0469 Q451.0469,636.0469 451.7031,635.7969 Q452.0938,635.6406 452.5156,635.2031 Q452.7813,634.9375 452.9219,634.8594 Q453.0781,634.7813 453.2813,634.7813 Q453.6094,634.7813 453.8594,635.0469 Q454.125,635.2969 454.125,635.6406 Q454.125,635.9844 453.7813,636.3906 Q453.2813,636.9688 452.4844,637.2969 Q451.4063,637.75 450.1094,637.75 Q448.5938,637.75 447.3906,637.125 Q446.4063,636.625 445.7188,635.5625 Q445.0313,634.4844 445.0313,633.2031 L445.0313,632.0469 Q445.0313,630.7188 445.6406,629.5781 Q446.2656,628.4219 447.3594,627.8125 Q448.4531,627.1875 449.6875,627.1875 Q450.4219,627.1875 451.0625,627.3594 Q451.7188,627.5156 452.2656,627.875 Z " fill="#000000"/><text fill="#000000" font-family="sans-serif" font-size="14" lengthAdjust="spacing" textLength="16" x="463.5" y="637.7285">Or</text><line style="stroke:#181818;stroke-width:0.5;" x1="435.5" x2="481.5" y1="648" y2="648"/><line style="stroke:#181818;stroke-width:0.5;" x1="435.5" x2="481.5" y1="656" y2="656"/></g><!--MD5=[14a5dc05464a46d4bd1cc27b3752aa43]
class ColumnDataType--><g id="elem_ColumnDataType"><rect codeLine="49" fill="#F1F1F1" height="100.8281" id="ColumnDataType" rx="2.5" ry="2.5" style="stroke:#181818;stroke-width:0.5;" width="142" x="978.5" y="455"/><ellipse cx="993.5" cy="471" fill="#EB937F" rx="11" ry="11" style="stroke:#181818;stroke-width:1.0;"/><path d="M992.3594,471.7969 L992.3594,474.2969 L996.6875,474.2969 L996.6875,473.375 Q996.6875,472.7656 996.9219,472.5 Q997.1719,472.2344 997.5469,472.2344 Q997.9219,472.2344 998.1563,472.5 Q998.3906,472.7656 998.3906,473.375 L998.3906,476 L990.3906,476 Q989.7656,476 989.5,475.7656 Q989.25,475.5313 989.25,475.1406 Q989.25,474.7656 989.5156,474.5313 Q989.7813,474.2969 990.3906,474.2969 L990.6563,474.2969 L990.6563,467.6406 L990.3906,467.6406 Q989.7656,467.6406 989.5,467.4063 Q989.25,467.1719 989.25,466.7813 Q989.25,466.4063 989.5,466.1719 Q989.7656,465.9375 990.3906,465.9375 L998.0156,465.9375 L998.0156,468.5313 Q998.0156,469.1406 997.7813,469.4063 Q997.5625,469.6563 997.1719,469.6563 Q996.7969,469.6563 996.5625,469.4063 Q996.3281,469.1406 996.3281,468.5313 L996.3281,467.6406 L992.3594,467.6406 L992.3594,470.0938 L993.8438,470.0938 Q993.8438,469.4375 993.9688,469.25 Q994.2344,468.8438 994.7031,468.8438 Q995.0781,468.8438 995.3125,469.1094 Q995.5469,469.3594 995.5469,469.9688 L995.5469,471.9375 Q995.5469,472.4844 995.4219,472.6719 Q995.1563,473.0625 994.7031,473.0625 Q994.2344,473.0625 993.9688,472.6563 Q993.8438,472.4688 993.8438,471.7969 L992.3594,471.7969 Z " fill="#000000"/><text fill="#000000" font-family="sans-serif" font-size="14" lengthAdjust="spacing" textLength="110" x="1007.5" y="476.7285">ColumnDataType</text><line style="stroke:#181818;stroke-width:0.5;" x1="979.5" x2="1119.5" y1="487" y2="487"/><text fill="#000000" font-family="sans-serif" font-size="14" lengthAdjust="spacing" textLength="48" x="984.5" y="505.5332">integer,</text><text fill="#000000" font-family="sans-serif" font-size="14" lengthAdjust="spacing" textLength="26" x="984.5" y="523.1426">text,</text><text fill="#000000" font-family="sans-serif" font-size="14" lengthAdjust="spacing" textLength="24" x="984.5" y="540.752">real</text><line style="stroke:#181818;stroke-width:0.5;" x1="979.5" x2="1119.5" y1="547.8281" y2="547.8281"/></g><!--MD5=[af7d543b6251b12f84b8a2da20750b1a]
class Create--><g id="elem_Create"><rect codeLine="55" fill="#F1F1F1" height="65.6094" id="Create" rx="2.5" ry="2.5" style="stroke:#181818;stroke-width:0.5;" width="138" x="895.5" y="133"/><ellipse cx="938.85" cy="149" fill="#ADD1B2" rx="11" ry="11" style="stroke:#181818;stroke-width:1.0;"/><path d="M941.6156,144.875 Q941.7719,144.6563 941.9594,144.5469 Q942.1469,144.4375 942.3656,144.4375 Q942.7406,144.4375 942.975,144.7031 Q943.2094,144.9531 943.2094,145.5625 L943.2094,147.0156 Q943.2094,147.625 942.975,147.8906 Q942.7406,148.1563 942.3656,148.1563 Q942.0219,148.1563 941.8188,147.9531 Q941.6156,147.7656 941.5063,147.25 Q941.4594,146.8906 941.2719,146.7031 Q940.9438,146.3281 940.3344,146.1094 Q939.725,145.8906 939.1,145.8906 Q938.3344,145.8906 937.6938,146.2188 Q937.0688,146.5469 936.5688,147.2969 Q936.0844,148.0469 936.0844,149.0781 L936.0844,150.1719 Q936.0844,151.4063 936.975,152.2344 Q937.8656,153.0469 939.4594,153.0469 Q940.3969,153.0469 941.0531,152.7969 Q941.4438,152.6406 941.8656,152.2031 Q942.1313,151.9375 942.2719,151.8594 Q942.4281,151.7813 942.6313,151.7813 Q942.9594,151.7813 943.2094,152.0469 Q943.475,152.2969 943.475,152.6406 Q943.475,152.9844 943.1313,153.3906 Q942.6313,153.9688 941.8344,154.2969 Q940.7563,154.75 939.4594,154.75 Q937.9438,154.75 936.7406,154.125 Q935.7563,153.625 935.0688,152.5625 Q934.3813,151.4844 934.3813,150.2031 L934.3813,149.0469 Q934.3813,147.7188 934.9906,146.5781 Q935.6156,145.4219 936.7094,144.8125 Q937.8031,144.1875 939.0375,144.1875 Q939.7719,144.1875 940.4125,144.3594 Q941.0688,144.5156 941.6156,144.875 Z " fill="#000000"/><text fill="#000000" font-family="sans-serif" font-size="14" lengthAdjust="spacing" textLength="43" x="959.15" y="154.7285">Create</text><line style="stroke:#181818;stroke-width:0.5;" x1="896.5" x2="1032.5" y1="165" y2="165"/><ellipse cx="906.5" cy="179.3047" fill="none" rx="3" ry="3" style="stroke:#038048;stroke-width:1.0;"/><text fill="#000000" font-family="sans-serif" font-size="14" lengthAdjust="spacing" textLength="112" x="915.5" y="183.5332">Column[] columns</text><line style="stroke:#181818;stroke-width:0.5;" x1="896.5" x2="1032.5" y1="190.6094" y2="190.6094"/></g><!--MD5=[e06ef809dd6be8ce79b58fe0a1161eb8]
class Column--><g id="elem_Column"><rect codeLine="61" fill="#F1F1F1" height="136.0469" id="Column" rx="2.5" ry="2.5" style="stroke:#181818;stroke-width:0.5;" width="153" x="973" y="259"/><ellipse cx="1021.25" cy="275" fill="#ADD1B2" rx="11" ry="11" style="stroke:#181818;stroke-width:1.0;"/><path d="M1024.0156,270.875 Q1024.1719,270.6563 1024.3594,270.5469 Q1024.5469,270.4375 1024.7656,270.4375 Q1025.1406,270.4375 1025.375,270.7031 Q1025.6094,270.9531 1025.6094,271.5625 L1025.6094,273.0156 Q1025.6094,273.625 1025.375,273.8906 Q1025.1406,274.1563 1024.7656,274.1563 Q1024.4219,274.1563 1024.2188,273.9531 Q1024.0156,273.7656 1023.9063,273.25 Q1023.8594,272.8906 1023.6719,272.7031 Q1023.3438,272.3281 1022.7344,272.1094 Q1022.125,271.8906 1021.5,271.8906 Q1020.7344,271.8906 1020.0938,272.2188 Q1019.4688,272.5469 1018.9688,273.2969 Q1018.4844,274.0469 1018.4844,275.0781 L1018.4844,276.1719 Q1018.4844,277.4063 1019.375,278.2344 Q1020.2656,279.0469 1021.8594,279.0469 Q1022.7969,279.0469 1023.4531,278.7969 Q1023.8438,278.6406 1024.2656,278.2031 Q1024.5313,277.9375 1024.6719,277.8594 Q1024.8281,277.7813 1025.0313,277.7813 Q1025.3594,277.7813 1025.6094,278.0469 Q1025.875,278.2969 1025.875,278.6406 Q1025.875,278.9844 1025.5313,279.3906 Q1025.0313,279.9688 1024.2344,280.2969 Q1023.1563,280.75 1021.8594,280.75 Q1020.3438,280.75 1019.1406,280.125 Q1018.1563,279.625 1017.4688,278.5625 Q1016.7813,277.4844 1016.7813,276.2031 L1016.7813,275.0469 Q1016.7813,273.7188 1017.3906,272.5781 Q1018.0156,271.4219 1019.1094,270.8125 Q1020.2031,270.1875 1021.4375,270.1875 Q1022.1719,270.1875 1022.8125,270.3594 Q1023.4688,270.5156 1024.0156,270.875 Z " fill="#000000"/><text fill="#000000" font-family="sans-serif" font-size="14" lengthAdjust="spacing" textLength="48" x="1041.75" y="280.7285">Column</text><line style="stroke:#181818;stroke-width:0.5;" x1="974" x2="1125" y1="291" y2="291"/><text fill="#000000" font-family="sans-serif" font-size="14" lengthAdjust="spacing" textLength="76" x="979" y="309.5332">String name</text><text fill="#000000" font-family="sans-serif" font-size="14" lengthAdjust="spacing" textLength="141" x="979" y="327.1426">ColumnDataType type</text><text fill="#000000" font-family="sans-serif" font-size="14" lengthAdjust="spacing" textLength="113" x="979" y="344.752">bool isPrimaryKey</text><text fill="#000000" font-family="sans-serif" font-size="14" lengthAdjust="spacing" textLength="85" x="979" y="362.3613">bool isNotNull</text><text fill="#000000" font-family="sans-serif" font-size="14" lengthAdjust="spacing" textLength="128" x="979" y="379.9707">String? defaultValue</text><line style="stroke:#181818;stroke-width:0.5;" x1="974" x2="1125" y1="387.0469" y2="387.0469"/></g><!--MD5=[9d82e49cffacc5184d1149ac06d87e9b]
class Delete--><g id="elem_Delete"><rect codeLine="70" fill="#F1F1F1" height="48" id="Delete" rx="2.5" ry="2.5" style="stroke:#181818;stroke-width:0.5;" width="73" x="401" y="303"/><ellipse cx="416" cy="319" fill="#ADD1B2" rx="11" ry="11" style="stroke:#181818;stroke-width:1.0;"/><path d="M418.7656,314.875 Q418.9219,314.6563 419.1094,314.5469 Q419.2969,314.4375 419.5156,314.4375 Q419.8906,314.4375 420.125,314.7031 Q420.3594,314.9531 420.3594,315.5625 L420.3594,317.0156 Q420.3594,317.625 420.125,317.8906 Q419.8906,318.1563 419.5156,318.1563 Q419.1719,318.1563 418.9688,317.9531 Q418.7656,317.7656 418.6563,317.25 Q418.6094,316.8906 418.4219,316.7031 Q418.0938,316.3281 417.4844,316.1094 Q416.875,315.8906 416.25,315.8906 Q415.4844,315.8906 414.8438,316.2188 Q414.2188,316.5469 413.7188,317.2969 Q413.2344,318.0469 413.2344,319.0781 L413.2344,320.1719 Q413.2344,321.4063 414.125,322.2344 Q415.0156,323.0469 416.6094,323.0469 Q417.5469,323.0469 418.2031,322.7969 Q418.5938,322.6406 419.0156,322.2031 Q419.2813,321.9375 419.4219,321.8594 Q419.5781,321.7813 419.7813,321.7813 Q420.1094,321.7813 420.3594,322.0469 Q420.625,322.2969 420.625,322.6406 Q420.625,322.9844 420.2813,323.3906 Q419.7813,323.9688 418.9844,324.2969 Q417.9063,324.75 416.6094,324.75 Q415.0938,324.75 413.8906,324.125 Q412.9063,323.625 412.2188,322.5625 Q411.5313,321.4844 411.5313,320.2031 L411.5313,319.0469 Q411.5313,317.7188 412.1406,316.5781 Q412.7656,315.4219 413.8594,314.8125 Q414.9531,314.1875 416.1875,314.1875 Q416.9219,314.1875 417.5625,314.3594 Q418.2188,314.5156 418.7656,314.875 Z " fill="#000000"/><text fill="#000000" font-family="sans-serif" font-size="14" lengthAdjust="spacing" textLength="41" x="430" y="324.7285">Delete</text><line style="stroke:#181818;stroke-width:0.5;" x1="402" x2="473" y1="335" y2="335"/><line style="stroke:#181818;stroke-width:0.5;" x1="402" x2="473" y1="343" y2="343"/></g><!--MD5=[e2d3da46aad6ad2235ed97afaf326e98]
class Update--><g id="elem_Update"><rect codeLine="74" fill="#F1F1F1" height="65.6094" id="Update" rx="2.5" ry="2.5" style="stroke:#181818;stroke-width:0.5;" width="194" x="509.5" y="294"/><ellipse cx="579.75" cy="310" fill="#ADD1B2" rx="11" ry="11" style="stroke:#181818;stroke-width:1.0;"/><path d="M582.5156,305.875 Q582.6719,305.6563 582.8594,305.5469 Q583.0469,305.4375 583.2656,305.4375 Q583.6406,305.4375 583.875,305.7031 Q584.1094,305.9531 584.1094,306.5625 L584.1094,308.0156 Q584.1094,308.625 583.875,308.8906 Q583.6406,309.1563 583.2656,309.1563 Q582.9219,309.1563 582.7188,308.9531 Q582.5156,308.7656 582.4063,308.25 Q582.3594,307.8906 582.1719,307.7031 Q581.8438,307.3281 581.2344,307.1094 Q580.625,306.8906 580,306.8906 Q579.2344,306.8906 578.5938,307.2188 Q577.9688,307.5469 577.4688,308.2969 Q576.9844,309.0469 576.9844,310.0781 L576.9844,311.1719 Q576.9844,312.4063 577.875,313.2344 Q578.7656,314.0469 580.3594,314.0469 Q581.2969,314.0469 581.9531,313.7969 Q582.3438,313.6406 582.7656,313.2031 Q583.0313,312.9375 583.1719,312.8594 Q583.3281,312.7813 583.5313,312.7813 Q583.8594,312.7813 584.1094,313.0469 Q584.375,313.2969 584.375,313.6406 Q584.375,313.9844 584.0313,314.3906 Q583.5313,314.9688 582.7344,315.2969 Q581.6563,315.75 580.3594,315.75 Q578.8438,315.75 577.6406,315.125 Q576.6563,314.625 575.9688,313.5625 Q575.2813,312.4844 575.2813,311.2031 L575.2813,310.0469 Q575.2813,308.7188 575.8906,307.5781 Q576.5156,306.4219 577.6094,305.8125 Q578.7031,305.1875 579.9375,305.1875 Q580.6719,305.1875 581.3125,305.3594 Q581.9688,305.5156 582.5156,305.875 Z " fill="#000000"/><text fill="#000000" font-family="sans-serif" font-size="14" lengthAdjust="spacing" textLength="45" x="600.25" y="315.7285">Update</text><line style="stroke:#181818;stroke-width:0.5;" x1="510.5" x2="702.5" y1="326" y2="326"/><text fill="#000000" font-family="sans-serif" font-size="14" lengthAdjust="spacing" textLength="182" x="515.5" y="344.5332">Map&lt;String, Object?&gt; values</text><line style="stroke:#181818;stroke-width:0.5;" x1="510.5" x2="702.5" y1="351.6094" y2="351.6094"/></g><!--MD5=[25fb7419bbbcbf228ba4866db67def41]
class Select--><g id="elem_Select"><rect codeLine="79" fill="#F1F1F1" height="83.2188" id="Select" rx="2.5" ry="2.5" style="stroke:#181818;stroke-width:0.5;" width="127" x="739" y="285.5"/><ellipse cx="779.2" cy="301.5" fill="#ADD1B2" rx="11" ry="11" style="stroke:#181818;stroke-width:1.0;"/><path d="M781.9656,297.375 Q782.1219,297.1563 782.3094,297.0469 Q782.4969,296.9375 782.7156,296.9375 Q783.0906,296.9375 783.325,297.2031 Q783.5594,297.4531 783.5594,298.0625 L783.5594,299.5156 Q783.5594,300.125 783.325,300.3906 Q783.0906,300.6563 782.7156,300.6563 Q782.3719,300.6563 782.1688,300.4531 Q781.9656,300.2656 781.8563,299.75 Q781.8094,299.3906 781.6219,299.2031 Q781.2938,298.8281 780.6844,298.6094 Q780.075,298.3906 779.45,298.3906 Q778.6844,298.3906 778.0438,298.7188 Q777.4188,299.0469 776.9188,299.7969 Q776.4344,300.5469 776.4344,301.5781 L776.4344,302.6719 Q776.4344,303.9063 777.325,304.7344 Q778.2156,305.5469 779.8094,305.5469 Q780.7469,305.5469 781.4031,305.2969 Q781.7938,305.1406 782.2156,304.7031 Q782.4813,304.4375 782.6219,304.3594 Q782.7781,304.2813 782.9813,304.2813 Q783.3094,304.2813 783.5594,304.5469 Q783.825,304.7969 783.825,305.1406 Q783.825,305.4844 783.4813,305.8906 Q782.9813,306.4688 782.1844,306.7969 Q781.1063,307.25 779.8094,307.25 Q778.2938,307.25 777.0906,306.625 Q776.1063,306.125 775.4188,305.0625 Q774.7313,303.9844 774.7313,302.7031 L774.7313,301.5469 Q774.7313,300.2188 775.3406,299.0781 Q775.9656,297.9219 777.0594,297.3125 Q778.1531,296.6875 779.3875,296.6875 Q780.1219,296.6875 780.7625,296.8594 Q781.4188,297.0156 781.9656,297.375 Z " fill="#000000"/><text fill="#000000" font-family="sans-serif" font-size="14" lengthAdjust="spacing" textLength="39" x="798.8" y="307.2285">Select</text><line style="stroke:#181818;stroke-width:0.5;" x1="740" x2="865" y1="317.5" y2="317.5"/><ellipse cx="750" cy="331.8047" fill="none" rx="3" ry="3" style="stroke:#038048;stroke-width:1.0;"/><text fill="#000000" font-family="sans-serif" font-size="14" lengthAdjust="spacing" textLength="101" x="759" y="336.0332">String[] columns</text><ellipse cx="750" cy="349.4141" fill="none" rx="3" ry="3" style="stroke:#038048;stroke-width:1.0;"/><text fill="#000000" font-family="sans-serif" font-size="14" lengthAdjust="spacing" textLength="66" x="759" y="353.6426">Join[] joins</text><line style="stroke:#181818;stroke-width:0.5;" x1="740" x2="865" y1="360.7188" y2="360.7188"/></g><!--MD5=[0ab3aa580b5e422d4f0256f9b3236a21]
class Join--><g id="elem_Join"><rect codeLine="85" fill="#F1F1F1" height="65.6094" id="Join" rx="2.5" ry="2.5" style="stroke:#181818;stroke-width:0.5;" width="96" x="800.5" y="472.5"/><ellipse cx="833.05" cy="488.5" fill="#ADD1B2" rx="11" ry="11" style="stroke:#181818;stroke-width:1.0;"/><path d="M835.8156,484.375 Q835.9719,484.1563 836.1594,484.0469 Q836.3469,483.9375 836.5656,483.9375 Q836.9406,483.9375 837.175,484.2031 Q837.4094,484.4531 837.4094,485.0625 L837.4094,486.5156 Q837.4094,487.125 837.175,487.3906 Q836.9406,487.6563 836.5656,487.6563 Q836.2219,487.6563 836.0188,487.4531 Q835.8156,487.2656 835.7063,486.75 Q835.6594,486.3906 835.4719,486.2031 Q835.1438,485.8281 834.5344,485.6094 Q833.925,485.3906 833.3,485.3906 Q832.5344,485.3906 831.8938,485.7188 Q831.2688,486.0469 830.7688,486.7969 Q830.2844,487.5469 830.2844,488.5781 L830.2844,489.6719 Q830.2844,490.9063 831.175,491.7344 Q832.0656,492.5469 833.6594,492.5469 Q834.5969,492.5469 835.2531,492.2969 Q835.6438,492.1406 836.0656,491.7031 Q836.3313,491.4375 836.4719,491.3594 Q836.6281,491.2813 836.8313,491.2813 Q837.1594,491.2813 837.4094,491.5469 Q837.675,491.7969 837.675,492.1406 Q837.675,492.4844 837.3313,492.8906 Q836.8313,493.4688 836.0344,493.7969 Q834.9563,494.25 833.6594,494.25 Q832.1438,494.25 830.9406,493.625 Q829.9563,493.125 829.2688,492.0625 Q828.5813,490.9844 828.5813,489.7031 L828.5813,488.5469 Q828.5813,487.2188 829.1906,486.0781 Q829.8156,484.9219 830.9094,484.3125 Q832.0031,483.6875 833.2375,483.6875 Q833.9719,483.6875 834.6125,483.8594 Q835.2688,484.0156 835.8156,484.375 Z " fill="#000000"/><text fill="#000000" font-family="sans-serif" font-size="14" lengthAdjust="spacing" textLength="25" x="850.95" y="494.2285">Join</text><line style="stroke:#181818;stroke-width:0.5;" x1="801.5" x2="895.5" y1="504.5" y2="504.5"/><ellipse cx="811.5" cy="518.8047" fill="none" rx="3" ry="3" style="stroke:#038048;stroke-width:1.0;"/><text fill="#000000" font-family="sans-serif" font-size="14" lengthAdjust="spacing" textLength="70" x="820.5" y="523.0332">String alias</text><line style="stroke:#181818;stroke-width:0.5;" x1="801.5" x2="895.5" y1="530.1094" y2="530.1094"/></g><!--MD5=[90c81c5abb68fc1cf50baa0b36284b44]
class Insert--><g id="elem_Insert"><rect codeLine="91" fill="#F1F1F1" height="65.6094" id="Insert" rx="2.5" ry="2.5" style="stroke:#181818;stroke-width:0.5;" width="208" x="1068.5" y="133"/><ellipse cx="1150.75" cy="149" fill="#ADD1B2" rx="11" ry="11" style="stroke:#181818;stroke-width:1.0;"/><path d="M1153.5156,144.875 Q1153.6719,144.6563 1153.8594,144.5469 Q1154.0469,144.4375 1154.2656,144.4375 Q1154.6406,144.4375 1154.875,144.7031 Q1155.1094,144.9531 1155.1094,145.5625 L1155.1094,147.0156 Q1155.1094,147.625 1154.875,147.8906 Q1154.6406,148.1563 1154.2656,148.1563 Q1153.9219,148.1563 1153.7188,147.9531 Q1153.5156,147.7656 1153.4063,147.25 Q1153.3594,146.8906 1153.1719,146.7031 Q1152.8438,146.3281 1152.2344,146.1094 Q1151.625,145.8906 1151,145.8906 Q1150.2344,145.8906 1149.5938,146.2188 Q1148.9688,146.5469 1148.4688,147.2969 Q1147.9844,148.0469 1147.9844,149.0781 L1147.9844,150.1719 Q1147.9844,151.4063 1148.875,152.2344 Q1149.7656,153.0469 1151.3594,153.0469 Q1152.2969,153.0469 1152.9531,152.7969 Q1153.3438,152.6406 1153.7656,152.2031 Q1154.0313,151.9375 1154.1719,151.8594 Q1154.3281,151.7813 1154.5313,151.7813 Q1154.8594,151.7813 1155.1094,152.0469 Q1155.375,152.2969 1155.375,152.6406 Q1155.375,152.9844 1155.0313,153.3906 Q1154.5313,153.9688 1153.7344,154.2969 Q1152.6563,154.75 1151.3594,154.75 Q1149.8438,154.75 1148.6406,154.125 Q1147.6563,153.625 1146.9688,152.5625 Q1146.2813,151.4844 1146.2813,150.2031 L1146.2813,149.0469 Q1146.2813,147.7188 1146.8906,146.5781 Q1147.5156,145.4219 1148.6094,144.8125 Q1149.7031,144.1875 1150.9375,144.1875 Q1151.6719,144.1875 1152.3125,144.3594 Q1152.9688,144.5156 1153.5156,144.875 Z " fill="#000000"/><text fill="#000000" font-family="sans-serif" font-size="14" lengthAdjust="spacing" textLength="35" x="1171.25" y="154.7285">Insert</text><line style="stroke:#181818;stroke-width:0.5;" x1="1069.5" x2="1275.5" y1="165" y2="165"/><ellipse cx="1079.5" cy="179.3047" fill="none" rx="3" ry="3" style="stroke:#038048;stroke-width:1.0;"/><text fill="#000000" font-family="sans-serif" font-size="14" lengthAdjust="spacing" textLength="182" x="1088.5" y="183.5332">Map&lt;String, Object?&gt; values</text><line style="stroke:#181818;stroke-width:0.5;" x1="1069.5" x2="1275.5" y1="190.6094" y2="190.6094"/></g><!--MD5=[51b068c1f6d80021dec0615ce7883fc6]
reverse link Statement to CriteriaStatement--><g id="link_Statement_CriteriaStatement"><path d="M891.15,75.98 C853.75,93.82 808.58,115.36 772.04,132.79 " fill="none" id="Statement-backto-CriteriaStatement" style="stroke:#181818;stroke-width:1.0;"/><polygon fill="none" points="888.3,69.59,909.36,67.3,894.32,82.22,888.3,69.59" style="stroke:#181818;stroke-width:1.0;"/></g><!--MD5=[4785e05943df2c690b70309ca9eb7ebc]
reverse link CriteriaStatement to Criterion--><g id="link_CriteriaStatement_Criterion"><path codeLine="8" d="M620.39,184.09 C554.24,199.18 460.67,224.21 383.5,259 C362.41,268.51 340.6,281.77 322.37,293.99 " fill="none" id="CriteriaStatement-backto-Criterion" style="stroke:#181818;stroke-width:1.0;"/><polygon fill="none" points="633.25,181.2,626.5177,178.6161,621.5432,183.8367,628.2755,186.4206,633.25,181.2" style="stroke:#181818;stroke-width:1.0;"/></g><!--MD5=[b459438bcfc87cc4292431aceb669407]
reverse link Criterion to CriterionCompare--><g id="link_Criterion_CriterionCompare"><path d="M249.57,378.07 C233.86,405.25 214.69,438.41 199.93,463.96 " fill="none" id="Criterion-backto-CriterionCompare" style="stroke:#181818;stroke-width:1.0;"/><polygon fill="none" points="243.72,374.19,259.79,360.37,255.85,381.19,243.72,374.19" style="stroke:#181818;stroke-width:1.0;"/></g><!--MD5=[16355476bc66e2c394927ff489694d9e]
reverse link CriterionCompare to Equals--><g id="link_CriterionCompare_Equals"><path d="M121.69,561.51 C102.76,580.52 82.56,600.8 67.57,615.84 " fill="none" id="CriterionCompare-backto-Equals" style="stroke:#181818;stroke-width:1.0;"/><polygon fill="none" points="116.74,556.56,135.82,547.34,126.66,566.44,116.74,556.56" style="stroke:#181818;stroke-width:1.0;"/></g><!--MD5=[2083532366aceaf7bbc4e58db99804d5]
reverse link CriterionCompare to NotEquals--><g id="link_CriterionCompare_NotEquals"><path d="M171.44,567.42 C170.01,584.64 168.54,602.35 167.42,615.84 " fill="none" id="CriterionCompare-backto-NotEquals" style="stroke:#181818;stroke-width:1.0;"/><polygon fill="none" points="164.48,566.69,173.11,547.34,178.43,567.85,164.48,566.69" style="stroke:#181818;stroke-width:1.0;"/></g><!--MD5=[1f73fcded5f6c8f5d47cbe0d736eefb9]
reverse link CriterionCompare to Like--><g id="link_CriterionCompare_Like"><path d="M219.93,563.47 C233.98,581.91 248.77,601.31 259.85,615.84 " fill="none" id="CriterionCompare-backto-Like" style="stroke:#181818;stroke-width:1.0;"/><polygon fill="none" points="214.18,567.49,207.63,547.34,225.32,559,214.18,567.49" style="stroke:#181818;stroke-width:1.0;"/></g><!--MD5=[8b3cea631a8ecc629ffe75c75c813806]
reverse link Criterion to CriterionLogic--><g id="link_Criterion_CriterionLogic"><path d="M304.83,378.52 C320.57,408.7 340.08,446.14 353.73,472.33 " fill="none" id="Criterion-backto-CriterionLogic" style="stroke:#181818;stroke-width:1.0;"/><polygon fill="none" points="298.41,381.34,295.37,360.37,310.83,374.87,298.41,381.34" style="stroke:#181818;stroke-width:1.0;"/></g><!--MD5=[1aa0e8739ffb915b80cf0ecac438930c]
reverse link CriterionLogic to And--><g id="link_CriterionLogic_And"><path d="M370.5,558.68 C370.5,578.52 370.5,600.14 370.5,615.94 " fill="none" id="CriterionLogic-backto-And" style="stroke:#181818;stroke-width:1.0;"/><polygon fill="none" points="363.5,558.57,370.5,538.57,377.5,558.57,363.5,558.57" style="stroke:#181818;stroke-width:1.0;"/></g><!--MD5=[68ca8bb66babe19ecc9fa02acff5d9e5]
reverse link CriterionLogic to Or--><g id="link_CriterionLogic_Or"><path d="M403.07,555.54 C416.81,576.22 432.13,599.3 443.18,615.94 " fill="none" id="CriterionLogic-backto-Or" style="stroke:#181818;stroke-width:1.0;"/><polygon fill="none" points="397.04,559.11,391.8,538.57,408.7,551.36,397.04,559.11" style="stroke:#181818;stroke-width:1.0;"/></g><!--MD5=[d24dbb618d012a0410e0c652605f9d6d]
reverse link Statement to Create--><g id="link_Statement_Create"><path d="M964.5,93.45 C964.5,106.85 964.5,120.87 964.5,132.91 " fill="none" id="Statement-backto-Create" style="stroke:#181818;stroke-width:1.0;"/><polygon fill="none" points="957.5,93.26,964.5,73.26,971.5,93.26,957.5,93.26" style="stroke:#181818;stroke-width:1.0;"/></g><!--MD5=[2118f1810bdce1b4727f259dab7cfd1c]
reverse link Create to Column--><g id="link_Create_Column"><path codeLine="59" d="M988.04,211.03 C995.93,225.8 1004.92,242.61 1013.54,258.74 " fill="none" id="Create-backto-Column" style="stroke:#181818;stroke-width:1.0;"/><polygon fill="#181818" points="981.7,199.18,981.0029,206.3573,987.3601,209.7613,988.0571,202.584,981.7,199.18" style="stroke:#181818;stroke-width:1.0;"/></g><!--MD5=[201f49449e2af94ad53a81dc326c5981]
link Column to ColumnDataType--><g id="link_Column_ColumnDataType"><path codeLine="68" d="M1049.5,395.23 C1049.5,413.15 1049.5,432.3 1049.5,449.48 " fill="none" id="Column-to-ColumnDataType" style="stroke:#181818;stroke-width:1.0;"/><polygon fill="#181818" points="1049.5,454.75,1053.5,445.75,1049.5,449.75,1045.5,445.75,1049.5,454.75" style="stroke:#181818;stroke-width:1.0;"/></g><!--MD5=[407ceb1295bac43c7db3a9623f02ae56]
reverse link CriteriaStatement to Delete--><g id="link_CriteriaStatement_Delete"><path d="M614.2,194.92 C574.18,209.97 528.01,231.24 491.5,259 C475.68,271.03 461.73,288.64 451.96,302.79 " fill="none" id="CriteriaStatement-backto-Delete" style="stroke:#181818;stroke-width:1.0;"/><polygon fill="none" points="612.09,188.23,633.28,188.02,616.85,201.4,612.09,188.23" style="stroke:#181818;stroke-width:1.0;"/></g><!--MD5=[11248a0c1514b9c77a815ea97e8d3fd6]
reverse link CriteriaStatement to Update--><g id="link_CriteriaStatement_Update"><path d="M673.97,216.53 C658.43,241.75 639.98,271.69 626.3,293.87 " fill="none" id="CriteriaStatement-backto-Update" style="stroke:#181818;stroke-width:1.0;"/><polygon fill="none" points="668.22,212.53,684.67,199.18,680.13,219.87,668.22,212.53" style="stroke:#181818;stroke-width:1.0;"/></g><!--MD5=[11f3575cf4f8f38ad463992f09439778]
reverse link CriteriaStatement to Select--><g id="link_CriteriaStatement_Select"><path d="M734.93,216.37 C748.59,238.54 764.51,264.36 777.47,285.38 " fill="none" id="CriteriaStatement-backto-Select" style="stroke:#181818;stroke-width:1.0;"/><polygon fill="none" points="728.87,219.87,724.33,199.18,740.78,212.53,728.87,219.87" style="stroke:#181818;stroke-width:1.0;"/></g><!--MD5=[33992e653480c7cd274f2d78be573914]
reverse link CriteriaStatement to Join--><g id="link_CriteriaStatement_Join"><path d="M794.77,191.27 C828.69,205.25 863.78,226.69 883.5,259 C924.55,326.25 889.02,422.8 865.43,472.4 " fill="none" id="CriteriaStatement-backto-Join" style="stroke:#181818;stroke-width:1.0;"/><polygon fill="none" points="791.87,197.65,775.61,184.06,796.8,184.55,791.87,197.65" style="stroke:#181818;stroke-width:1.0;"/></g><!--MD5=[41114818dbe690df20fcfbbe8b3cbf81]
reverse link Select to Join--><g id="link_Select_Join"><path codeLine="89" d="M816.47,381.62 C824.19,411.22 833.52,447.01 840.11,472.31 " fill="none" id="Select-backto-Join" style="stroke:#181818;stroke-width:1.0;"/><polygon fill="none" points="813.17,368.94,810.8081,375.7533,816.1889,380.5541,818.5508,373.7407,813.17,368.94" style="stroke:#181818;stroke-width:1.0;"/></g><!--MD5=[7ae76b33dd928567bd0d739c3c47f0be]
reverse link Statement to Insert--><g id="link_Statement_Insert"><path d="M1035.61,83.39 C1062.75,99.57 1093.23,117.74 1118.53,132.82 " fill="none" id="Statement-backto-Insert" style="stroke:#181818;stroke-width:1.0;"/><polygon fill="none" points="1031.93,89.35,1018.34,73.09,1039.1,77.32,1031.93,89.35" style="stroke:#181818;stroke-width:1.0;"/></g><!--MD5=[c70247d988402ea6a4faa72a3089854a]
@startuml statement_classes


abstract class CriteriaStatement extends Statement{
    Criterion[] criteria
}


CriteriaStatement o- - Criterion

abstract class Statement{
    + String source
}


abstract class Criterion{
    +String criterionOperator
}

abstract class CriterionCompare extends Criterion{

    + Object? firstField
    + Object? secondField
}

class Equals extends CriterionCompare{

}

class NotEquals extends CriterionCompare{

}

class Like extends CriterionCompare{

}

abstract class CriterionLogic extends Criterion{

    + Crtiterion[] criteria
}

class And extends CriterionLogic{

}
class Or extends CriterionLogic{

}

enum ColumnDataType{
    integer,
    text,
    real
}

class Create extends Statement{
    + Column[] columns
}

Create *- - Column

class Column{
    String name
    ColumnDataType type
    bool isPrimaryKey
    bool isNotNull
    String? defaultValue
}
Column - -> ColumnDataType

class Delete extends CriteriaStatement{

}

class Update extends CriteriaStatement{
    Map<String, Object?> values
}


class Select extends CriteriaStatement{
    + String[] columns
    + Join[] joins

}

class Join extends CriteriaStatement {
    +String alias
}

Select o- - Join

class Insert extends Statement{
    + Map<String, Object?> values
}




@enduml

PlantUML version 1.2022.7(Mon Aug 22 12:01:30 CDT 2022)
(GPL source distribution)
Java Runtime: Java(TM) SE Runtime Environment
JVM: Java HotSpot(TM) 64-Bit Server VM
Default Encoding: Cp1252
Language: es
Country: MX
--></g></svg>