<?xml version="1.0" encoding="UTF-8" standalone="no"?><svg xmlns="http://www.w3.org/2000/svg" xmlns:xlink="http://www.w3.org/1999/xlink" contentStyleType="text/css" height="671px" preserveAspectRatio="none" style="width:1881px;height:671px;background:#FFFFFF;" version="1.1" viewBox="0 0 1881 671" width="1881px" zoomAndPan="magnify"><defs/><g><!--MD5=[6985bcf30320a8d061b036ceefa059e0]
class CriteriaStatement--><g id="elem_CriteriaStatement"><rect codeLine="3" fill="#F1F1F1" height="65.6094" id="CriteriaStatement" rx="2.5" ry="2.5" style="stroke:#181818;stroke-width:0.5;" width="142" x="627.5" y="133"/><ellipse cx="642.5" cy="149" fill="#A9DCDF" rx="11" ry="11" style="stroke:#181818;stroke-width:1.0;"/><path d="M644.6875,150.7656 L640.5469,150.7656 L640.125,151.7969 L640.5469,151.7969 Q641.1563,151.7969 641.4219,152.0313 Q641.6875,152.2656 641.6875,152.6563 Q641.6875,153.0313 641.4219,153.2656 Q641.1563,153.5 640.5469,153.5 L638.25,153.5 Q637.6406,153.5 637.3906,153.2656 Q637.125,153.0313 637.125,152.6406 Q637.125,152.2656 637.4063,152.0313 Q637.6719,151.7813 638.2969,151.7969 L640.9688,145.1406 L639.8594,145.1406 Q639.25,145.1406 638.9844,144.9063 Q638.7188,144.6719 638.7188,144.2813 Q638.7188,143.9063 638.9844,143.6719 Q639.25,143.4375 639.8594,143.4375 L643.5313,143.4375 L646.9219,151.7969 Q647.5156,151.7969 647.7031,151.9375 Q648.0938,152.2031 648.0938,152.6563 Q648.0938,153.0313 647.8281,153.2656 Q647.5781,153.5 646.9688,153.5 L644.6719,153.5 Q644.0625,153.5 643.7969,153.2656 Q643.5313,153.0313 643.5313,152.6406 Q643.5313,152.2656 643.7969,152.0313 Q644.0625,151.7969 644.6719,151.7969 L645.0938,151.7969 L644.6875,150.7656 Z M643.9688,149.0625 L642.6094,145.6875 L641.2344,149.0625 L643.9688,149.0625 Z " fill="#000000"/><text fill="#000000" font-family="sans-serif" font-size="14" font-style="italic" lengthAdjust="spacing" textLength="110" x="656.5" y="154.7285">CriteriaStatement</text><line style="stroke:#181818;stroke-width:0.5;" x1="628.5" x2="768.5" y1="165" y2="165"/><text fill="#000000" font-family="sans-serif" font-size="14" lengthAdjust="spacing" textLength="109" x="633.5" y="183.5332">Criterion[] criteria</text><line style="stroke:#181818;stroke-width:0.5;" x1="628.5" x2="768.5" y1="190.6094" y2="190.6094"/></g><!--MD5=[a61a298976b7d1d94498f45c2ebfa10b]
class Statement--><g id="elem_Statement"><rect codeLine="10" fill="#F1F1F1" height="65.6094" id="Statement" rx="2.5" ry="2.5" style="stroke:#181818;stroke-width:0.5;" width="110" x="949.5" y="7"/><ellipse cx="970.8" cy="23" fill="#A9DCDF" rx="11" ry="11" style="stroke:#181818;stroke-width:1.0;"/><path d="M972.9875,24.7656 L968.8469,24.7656 L968.425,25.7969 L968.8469,25.7969 Q969.4563,25.7969 969.7219,26.0313 Q969.9875,26.2656 969.9875,26.6563 Q969.9875,27.0313 969.7219,27.2656 Q969.4563,27.5 968.8469,27.5 L966.55,27.5 Q965.9406,27.5 965.6906,27.2656 Q965.425,27.0313 965.425,26.6406 Q965.425,26.2656 965.7063,26.0313 Q965.9719,25.7813 966.5969,25.7969 L969.2688,19.1406 L968.1594,19.1406 Q967.55,19.1406 967.2844,18.9063 Q967.0188,18.6719 967.0188,18.2813 Q967.0188,17.9063 967.2844,17.6719 Q967.55,17.4375 968.1594,17.4375 L971.8313,17.4375 L975.2219,25.7969 Q975.8156,25.7969 976.0031,25.9375 Q976.3938,26.2031 976.3938,26.6563 Q976.3938,27.0313 976.1281,27.2656 Q975.8781,27.5 975.2688,27.5 L972.9719,27.5 Q972.3625,27.5 972.0969,27.2656 Q971.8313,27.0313 971.8313,26.6406 Q971.8313,26.2656 972.0969,26.0313 Q972.3625,25.7969 972.9719,25.7969 L973.3938,25.7969 L972.9875,24.7656 Z M972.2688,23.0625 L970.9094,19.6875 L969.5344,23.0625 L972.2688,23.0625 Z " fill="#000000"/><text fill="#000000" font-family="sans-serif" font-size="14" font-style="italic" lengthAdjust="spacing" textLength="64" x="986.2" y="28.7285">Statement</text><line style="stroke:#181818;stroke-width:0.5;" x1="950.5" x2="1058.5" y1="39" y2="39"/><ellipse cx="960.5" cy="53.3047" fill="none" rx="3" ry="3" style="stroke:#038048;stroke-width:1.0;"/><text fill="#000000" font-family="sans-serif" font-size="14" lengthAdjust="spacing" textLength="84" x="969.5" y="57.5332">String source</text><line style="stroke:#181818;stroke-width:0.5;" x1="950.5" x2="1058.5" y1="64.6094" y2="64.6094"/></g><!--MD5=[8ff17cdb83165c2c766dbd5ed84aa446]
class Criterion--><g id="elem_Criterion"><rect codeLine="15" fill="#F1F1F1" height="65.6094" id="Criterion" rx="2.5" ry="2.5" style="stroke:#181818;stroke-width:0.5;" width="175" x="194" y="294"/><ellipse cx="250.25" cy="310" fill="#A9DCDF" rx="11" ry="11" style="stroke:#181818;stroke-width:1.0;"/><path d="M252.4375,311.7656 L248.2969,311.7656 L247.875,312.7969 L248.2969,312.7969 Q248.9063,312.7969 249.1719,313.0313 Q249.4375,313.2656 249.4375,313.6563 Q249.4375,314.0313 249.1719,314.2656 Q248.9063,314.5 248.2969,314.5 L246,314.5 Q245.3906,314.5 245.1406,314.2656 Q244.875,314.0313 244.875,313.6406 Q244.875,313.2656 245.1563,313.0313 Q245.4219,312.7813 246.0469,312.7969 L248.7188,306.1406 L247.6094,306.1406 Q247,306.1406 246.7344,305.9063 Q246.4688,305.6719 246.4688,305.2813 Q246.4688,304.9063 246.7344,304.6719 Q247,304.4375 247.6094,304.4375 L251.2813,304.4375 L254.6719,312.7969 Q255.2656,312.7969 255.4531,312.9375 Q255.8438,313.2031 255.8438,313.6563 Q255.8438,314.0313 255.5781,314.2656 Q255.3281,314.5 254.7188,314.5 L252.4219,314.5 Q251.8125,314.5 251.5469,314.2656 Q251.2813,314.0313 251.2813,313.6406 Q251.2813,313.2656 251.5469,313.0313 Q251.8125,312.7969 252.4219,312.7969 L252.8438,312.7969 L252.4375,311.7656 Z M251.7188,310.0625 L250.3594,306.6875 L248.9844,310.0625 L251.7188,310.0625 Z " fill="#000000"/><text fill="#000000" font-family="sans-serif" font-size="14" font-style="italic" lengthAdjust="spacing" textLength="54" x="270.75" y="315.7285">Criterion</text><line style="stroke:#181818;stroke-width:0.5;" x1="195" x2="368" y1="326" y2="326"/><ellipse cx="205" cy="340.3047" fill="none" rx="3" ry="3" style="stroke:#038048;stroke-width:1.0;"/><text fill="#000000" font-family="sans-serif" font-size="14" lengthAdjust="spacing" textLength="149" x="214" y="344.5332">String criterionOperator</text><line style="stroke:#181818;stroke-width:0.5;" x1="195" x2="368" y1="351.6094" y2="351.6094"/></g><!--MD5=[f205ab4ecfb97ebe00039d74dda09571]
class CriterionCompare--><g id="elem_CriterionCompare"><rect codeLine="19" fill="#F1F1F1" height="83.2188" id="CriterionCompare" rx="2.5" ry="2.5" style="stroke:#181818;stroke-width:0.5;" width="144" x="107.5" y="464"/><ellipse cx="122.5" cy="480" fill="#A9DCDF" rx="11" ry="11" style="stroke:#181818;stroke-width:1.0;"/><path d="M124.6875,481.7656 L120.5469,481.7656 L120.125,482.7969 L120.5469,482.7969 Q121.1563,482.7969 121.4219,483.0313 Q121.6875,483.2656 121.6875,483.6563 Q121.6875,484.0313 121.4219,484.2656 Q121.1563,484.5 120.5469,484.5 L118.25,484.5 Q117.6406,484.5 117.3906,484.2656 Q117.125,484.0313 117.125,483.6406 Q117.125,483.2656 117.4063,483.0313 Q117.6719,482.7813 118.2969,482.7969 L120.9688,476.1406 L119.8594,476.1406 Q119.25,476.1406 118.9844,475.9063 Q118.7188,475.6719 118.7188,475.2813 Q118.7188,474.9063 118.9844,474.6719 Q119.25,474.4375 119.8594,474.4375 L123.5313,474.4375 L126.9219,482.7969 Q127.5156,482.7969 127.7031,482.9375 Q128.0938,483.2031 128.0938,483.6563 Q128.0938,484.0313 127.8281,484.2656 Q127.5781,484.5 126.9688,484.5 L124.6719,484.5 Q124.0625,484.5 123.7969,484.2656 Q123.5313,484.0313 123.5313,483.6406 Q123.5313,483.2656 123.7969,483.0313 Q124.0625,482.7969 124.6719,482.7969 L125.0938,482.7969 L124.6875,481.7656 Z M123.9688,480.0625 L122.6094,476.6875 L121.2344,480.0625 L123.9688,480.0625 Z " fill="#000000"/><text fill="#000000" font-family="sans-serif" font-size="14" font-style="italic" lengthAdjust="spacing" textLength="112" x="136.5" y="485.7285">CriterionCompare</text><line style="stroke:#181818;stroke-width:0.5;" x1="108.5" x2="250.5" y1="496" y2="496"/><ellipse cx="118.5" cy="510.3047" fill="none" rx="3" ry="3" style="stroke:#038048;stroke-width:1.0;"/><text fill="#000000" font-family="sans-serif" font-size="14" lengthAdjust="spacing" textLength="95" x="127.5" y="514.5332">String firstField</text><ellipse cx="118.5" cy="527.9141" fill="none" rx="3" ry="3" style="stroke:#038048;stroke-width:1.0;"/><text fill="#000000" font-family="sans-serif" font-size="14" lengthAdjust="spacing" textLength="118" x="127.5" y="532.1426">String secondField</text><line style="stroke:#181818;stroke-width:0.5;" x1="108.5" x2="250.5" y1="539.2188" y2="539.2188"/></g><!--MD5=[dd047b06638785db7c5e5d57995e2c0b]
class Equals--><g id="elem_Equals"><rect codeLine="25" fill="#F1F1F1" height="48" id="Equals" rx="2.5" ry="2.5" style="stroke:#181818;stroke-width:0.5;" width="75" x="7" y="616"/><ellipse cx="22" cy="632" fill="#ADD1B2" rx="11" ry="11" style="stroke:#181818;stroke-width:1.0;"/><path d="M24.7656,627.875 Q24.9219,627.6563 25.1094,627.5469 Q25.2969,627.4375 25.5156,627.4375 Q25.8906,627.4375 26.125,627.7031 Q26.3594,627.9531 26.3594,628.5625 L26.3594,630.0156 Q26.3594,630.625 26.125,630.8906 Q25.8906,631.1563 25.5156,631.1563 Q25.1719,631.1563 24.9688,630.9531 Q24.7656,630.7656 24.6563,630.25 Q24.6094,629.8906 24.4219,629.7031 Q24.0938,629.3281 23.4844,629.1094 Q22.875,628.8906 22.25,628.8906 Q21.4844,628.8906 20.8438,629.2188 Q20.2188,629.5469 19.7188,630.2969 Q19.2344,631.0469 19.2344,632.0781 L19.2344,633.1719 Q19.2344,634.4063 20.125,635.2344 Q21.0156,636.0469 22.6094,636.0469 Q23.5469,636.0469 24.2031,635.7969 Q24.5938,635.6406 25.0156,635.2031 Q25.2813,634.9375 25.4219,634.8594 Q25.5781,634.7813 25.7813,634.7813 Q26.1094,634.7813 26.3594,635.0469 Q26.625,635.2969 26.625,635.6406 Q26.625,635.9844 26.2813,636.3906 Q25.7813,636.9688 24.9844,637.2969 Q23.9063,637.75 22.6094,637.75 Q21.0938,637.75 19.8906,637.125 Q18.9063,636.625 18.2188,635.5625 Q17.5313,634.4844 17.5313,633.2031 L17.5313,632.0469 Q17.5313,630.7188 18.1406,629.5781 Q18.7656,628.4219 19.8594,627.8125 Q20.9531,627.1875 22.1875,627.1875 Q22.9219,627.1875 23.5625,627.3594 Q24.2188,627.5156 24.7656,627.875 Z " fill="#000000"/><text fill="#000000" font-family="sans-serif" font-size="14" lengthAdjust="spacing" textLength="43" x="36" y="637.7285">Equals</text><line style="stroke:#181818;stroke-width:0.5;" x1="8" x2="81" y1="648" y2="648"/><line style="stroke:#181818;stroke-width:0.5;" x1="8" x2="81" y1="656" y2="656"/></g><!--MD5=[3a676806810cf2216953c47ea5ed2291]
class NotEquals--><g id="elem_NotEquals"><rect codeLine="29" fill="#F1F1F1" height="48" id="NotEquals" rx="2.5" ry="2.5" style="stroke:#181818;stroke-width:0.5;" width="96" x="117.5" y="616"/><ellipse cx="132.5" cy="632" fill="#ADD1B2" rx="11" ry="11" style="stroke:#181818;stroke-width:1.0;"/><path d="M135.2656,627.875 Q135.4219,627.6563 135.6094,627.5469 Q135.7969,627.4375 136.0156,627.4375 Q136.3906,627.4375 136.625,627.7031 Q136.8594,627.9531 136.8594,628.5625 L136.8594,630.0156 Q136.8594,630.625 136.625,630.8906 Q136.3906,631.1563 136.0156,631.1563 Q135.6719,631.1563 135.4688,630.9531 Q135.2656,630.7656 135.1563,630.25 Q135.1094,629.8906 134.9219,629.7031 Q134.5938,629.3281 133.9844,629.1094 Q133.375,628.8906 132.75,628.8906 Q131.9844,628.8906 131.3438,629.2188 Q130.7188,629.5469 130.2188,630.2969 Q129.7344,631.0469 129.7344,632.0781 L129.7344,633.1719 Q129.7344,634.4063 130.625,635.2344 Q131.5156,636.0469 133.1094,636.0469 Q134.0469,636.0469 134.7031,635.7969 Q135.0938,635.6406 135.5156,635.2031 Q135.7813,634.9375 135.9219,634.8594 Q136.0781,634.7813 136.2813,634.7813 Q136.6094,634.7813 136.8594,635.0469 Q137.125,635.2969 137.125,635.6406 Q137.125,635.9844 136.7813,636.3906 Q136.2813,636.9688 135.4844,637.2969 Q134.4063,637.75 133.1094,637.75 Q131.5938,637.75 130.3906,637.125 Q129.4063,636.625 128.7188,635.5625 Q128.0313,634.4844 128.0313,633.2031 L128.0313,632.0469 Q128.0313,630.7188 128.6406,629.5781 Q129.2656,628.4219 130.3594,627.8125 Q131.4531,627.1875 132.6875,627.1875 Q133.4219,627.1875 134.0625,627.3594 Q134.7188,627.5156 135.2656,627.875 Z " fill="#000000"/><text fill="#000000" font-family="sans-serif" font-size="14" lengthAdjust="spacing" textLength="64" x="146.5" y="637.7285">NotEquals</text><line style="stroke:#181818;stroke-width:0.5;" x1="118.5" x2="212.5" y1="648" y2="648"/><line style="stroke:#181818;stroke-width:0.5;" x1="118.5" x2="212.5" y1="656" y2="656"/></g><!--MD5=[378e3e2ca7e24a99f4479cd893fbde36]
class Like--><g id="elem_Like"><rect codeLine="33" fill="#F1F1F1" height="48" id="Like" rx="2.5" ry="2.5" style="stroke:#181818;stroke-width:0.5;" width="58" x="248.5" y="616"/><ellipse cx="263.5" cy="632" fill="#ADD1B2" rx="11" ry="11" style="stroke:#181818;stroke-width:1.0;"/><path d="M266.2656,627.875 Q266.4219,627.6563 266.6094,627.5469 Q266.7969,627.4375 267.0156,627.4375 Q267.3906,627.4375 267.625,627.7031 Q267.8594,627.9531 267.8594,628.5625 L267.8594,630.0156 Q267.8594,630.625 267.625,630.8906 Q267.3906,631.1563 267.0156,631.1563 Q266.6719,631.1563 266.4688,630.9531 Q266.2656,630.7656 266.1563,630.25 Q266.1094,629.8906 265.9219,629.7031 Q265.5938,629.3281 264.9844,629.1094 Q264.375,628.8906 263.75,628.8906 Q262.9844,628.8906 262.3438,629.2188 Q261.7188,629.5469 261.2188,630.2969 Q260.7344,631.0469 260.7344,632.0781 L260.7344,633.1719 Q260.7344,634.4063 261.625,635.2344 Q262.5156,636.0469 264.1094,636.0469 Q265.0469,636.0469 265.7031,635.7969 Q266.0938,635.6406 266.5156,635.2031 Q266.7813,634.9375 266.9219,634.8594 Q267.0781,634.7813 267.2813,634.7813 Q267.6094,634.7813 267.8594,635.0469 Q268.125,635.2969 268.125,635.6406 Q268.125,635.9844 267.7813,636.3906 Q267.2813,636.9688 266.4844,637.2969 Q265.4063,637.75 264.1094,637.75 Q262.5938,637.75 261.3906,637.125 Q260.4063,636.625 259.7188,635.5625 Q259.0313,634.4844 259.0313,633.2031 L259.0313,632.0469 Q259.0313,630.7188 259.6406,629.5781 Q260.2656,628.4219 261.3594,627.8125 Q262.4531,627.1875 263.6875,627.1875 Q264.4219,627.1875 265.0625,627.3594 Q265.7188,627.5156 266.2656,627.875 Z " fill="#000000"/><text fill="#000000" font-family="sans-serif" font-size="14" lengthAdjust="spacing" textLength="26" x="277.5" y="637.7285">Like</text><line style="stroke:#181818;stroke-width:0.5;" x1="249.5" x2="305.5" y1="648" y2="648"/><line style="stroke:#181818;stroke-width:0.5;" x1="249.5" x2="305.5" y1="656" y2="656"/></g><!--MD5=[933cf8221df3405ccace8994aa068925]
class CriterionLogic--><g id="elem_CriterionLogic"><rect codeLine="37" fill="#F1F1F1" height="65.6094" id="CriterionLogic" rx="2.5" ry="2.5" style="stroke:#181818;stroke-width:0.5;" width="139" x="301" y="472.5"/><ellipse cx="324.55" cy="488.5" fill="#A9DCDF" rx="11" ry="11" style="stroke:#181818;stroke-width:1.0;"/><path d="M326.7375,490.2656 L322.5969,490.2656 L322.175,491.2969 L322.5969,491.2969 Q323.2063,491.2969 323.4719,491.5313 Q323.7375,491.7656 323.7375,492.1563 Q323.7375,492.5313 323.4719,492.7656 Q323.2063,493 322.5969,493 L320.3,493 Q319.6906,493 319.4406,492.7656 Q319.175,492.5313 319.175,492.1406 Q319.175,491.7656 319.4563,491.5313 Q319.7219,491.2813 320.3469,491.2969 L323.0188,484.6406 L321.9094,484.6406 Q321.3,484.6406 321.0344,484.4063 Q320.7688,484.1719 320.7688,483.7813 Q320.7688,483.4063 321.0344,483.1719 Q321.3,482.9375 321.9094,482.9375 L325.5813,482.9375 L328.9719,491.2969 Q329.5656,491.2969 329.7531,491.4375 Q330.1438,491.7031 330.1438,492.1563 Q330.1438,492.5313 329.8781,492.7656 Q329.6281,493 329.0188,493 L326.7219,493 Q326.1125,493 325.8469,492.7656 Q325.5813,492.5313 325.5813,492.1406 Q325.5813,491.7656 325.8469,491.5313 Q326.1125,491.2969 326.7219,491.2969 L327.1438,491.2969 L326.7375,490.2656 Z M326.0188,488.5625 L324.6594,485.1875 L323.2844,488.5625 L326.0188,488.5625 Z " fill="#000000"/><text fill="#000000" font-family="sans-serif" font-size="14" font-style="italic" lengthAdjust="spacing" textLength="88" x="340.45" y="494.2285">CriterionLogic</text><line style="stroke:#181818;stroke-width:0.5;" x1="302" x2="439" y1="504.5" y2="504.5"/><ellipse cx="312" cy="518.8047" fill="none" rx="3" ry="3" style="stroke:#038048;stroke-width:1.0;"/><text fill="#000000" font-family="sans-serif" font-size="14" lengthAdjust="spacing" textLength="113" x="321" y="523.0332">Crtiterion[] criteria</text><line style="stroke:#181818;stroke-width:0.5;" x1="302" x2="439" y1="530.1094" y2="530.1094"/></g><!--MD5=[3be1097151cf8a36a9a9625c93fe8608]
class And--><g id="elem_And"><rect codeLine="42" fill="#F1F1F1" height="48" id="And" rx="2.5" ry="2.5" style="stroke:#181818;stroke-width:0.5;" width="57" x="342" y="616"/><ellipse cx="357" cy="632" fill="#ADD1B2" rx="11" ry="11" style="stroke:#181818;stroke-width:1.0;"/><path d="M359.7656,627.875 Q359.9219,627.6563 360.1094,627.5469 Q360.2969,627.4375 360.5156,627.4375 Q360.8906,627.4375 361.125,627.7031 Q361.3594,627.9531 361.3594,628.5625 L361.3594,630.0156 Q361.3594,630.625 361.125,630.8906 Q360.8906,631.1563 360.5156,631.1563 Q360.1719,631.1563 359.9688,630.9531 Q359.7656,630.7656 359.6563,630.25 Q359.6094,629.8906 359.4219,629.7031 Q359.0938,629.3281 358.4844,629.1094 Q357.875,628.8906 357.25,628.8906 Q356.4844,628.8906 355.8438,629.2188 Q355.2188,629.5469 354.7188,630.2969 Q354.2344,631.0469 354.2344,632.0781 L354.2344,633.1719 Q354.2344,634.4063 355.125,635.2344 Q356.0156,636.0469 357.6094,636.0469 Q358.5469,636.0469 359.2031,635.7969 Q359.5938,635.6406 360.0156,635.2031 Q360.2813,634.9375 360.4219,634.8594 Q360.5781,634.7813 360.7813,634.7813 Q361.1094,634.7813 361.3594,635.0469 Q361.625,635.2969 361.625,635.6406 Q361.625,635.9844 361.2813,636.3906 Q360.7813,636.9688 359.9844,637.2969 Q358.9063,637.75 357.6094,637.75 Q356.0938,637.75 354.8906,637.125 Q353.9063,636.625 353.2188,635.5625 Q352.5313,634.4844 352.5313,633.2031 L352.5313,632.0469 Q352.5313,630.7188 353.1406,629.5781 Q353.7656,628.4219 354.8594,627.8125 Q355.9531,627.1875 357.1875,627.1875 Q357.9219,627.1875 358.5625,627.3594 Q359.2188,627.5156 359.7656,627.875 Z " fill="#000000"/><text fill="#000000" font-family="sans-serif" font-size="14" lengthAdjust="spacing" textLength="25" x="371" y="637.7285">And</text><line style="stroke:#181818;stroke-width:0.5;" x1="343" x2="398" y1="648" y2="648"/><line style="stroke:#181818;stroke-width:0.5;" x1="343" x2="398" y1="656" y2="656"/></g><!--MD5=[23e6ed85c02a89921ce3312572b3f355]
class Or--><g id="elem_Or"><rect codeLine="45" fill="#F1F1F1" height="48" id="Or" rx="2.5" ry="2.5" style="stroke:#181818;stroke-width:0.5;" width="48" x="434.5" y="616"/><ellipse cx="449.5" cy="632" fill="#ADD1B2" rx="11" ry="11" style="stroke:#181818;stroke-width:1.0;"/><path d="M452.2656,627.875 Q452.4219,627.6563 452.6094,627.5469 Q452.7969,627.4375 453.0156,627.4375 Q453.3906,627.4375 453.625,627.7031 Q453.8594,627.9531 453.8594,628.5625 L453.8594,630.0156 Q453.8594,630.625 453.625,630.8906 Q453.3906,631.1563 453.0156,631.1563 Q452.6719,631.1563 452.4688,630.9531 Q452.2656,630.7656 452.1563,630.25 Q452.1094,629.8906 451.9219,629.7031 Q451.5938,629.3281 450.9844,629.1094 Q450.375,628.8906 449.75,628.8906 Q448.9844,628.8906 448.3438,629.2188 Q447.7188,629.5469 447.2188,630.2969 Q446.7344,631.0469 446.7344,632.0781 L446.7344,633.1719 Q446.7344,634.4063 447.625,635.2344 Q448.5156,636.0469 450.1094,636.0469 Q451.0469,636.0469 451.7031,635.7969 Q452.0938,635.6406 452.5156,635.2031 Q452.7813,634.9375 452.9219,634.8594 Q453.0781,634.7813 453.2813,634.7813 Q453.6094,634.7813 453.8594,635.0469 Q454.125,635.2969 454.125,635.6406 Q454.125,635.9844 453.7813,636.3906 Q453.2813,636.9688 452.4844,637.2969 Q451.4063,637.75 450.1094,637.75 Q448.5938,637.75 447.3906,637.125 Q446.4063,636.625 445.7188,635.5625 Q445.0313,634.4844 445.0313,633.2031 L445.0313,632.0469 Q445.0313,630.7188 445.6406,629.5781 Q446.2656,628.4219 447.3594,627.8125 Q448.4531,627.1875 449.6875,627.1875 Q450.4219,627.1875 451.0625,627.3594 Q451.7188,627.5156 452.2656,627.875 Z " fill="#000000"/><text fill="#000000" font-family="sans-serif" font-size="14" lengthAdjust="spacing" textLength="16" x="463.5" y="637.7285">Or</text><line style="stroke:#181818;stroke-width:0.5;" x1="435.5" x2="481.5" y1="648" y2="648"/><line style="stroke:#181818;stroke-width:0.5;" x1="435.5" x2="481.5" y1="656" y2="656"/></g><!--MD5=[14a5dc05464a46d4bd1cc27b3752aa43]
class ColumnDataType--><g id="elem_ColumnDataType"><rect codeLine="49" fill="#F1F1F1" height="100.8281" id="ColumnDataType" rx="2.5" ry="2.5" style="stroke:#181818;stroke-width:0.5;" width="142" x="969.5" y="455"/><ellipse cx="984.5" cy="471" fill="#EB937F" rx="11" ry="11" style="stroke:#181818;stroke-width:1.0;"/><path d="M983.3594,471.7969 L983.3594,474.2969 L987.6875,474.2969 L987.6875,473.375 Q987.6875,472.7656 987.9219,472.5 Q988.1719,472.2344 988.5469,472.2344 Q988.9219,472.2344 989.1563,472.5 Q989.3906,472.7656 989.3906,473.375 L989.3906,476 L981.3906,476 Q980.7656,476 980.5,475.7656 Q980.25,475.5313 980.25,475.1406 Q980.25,474.7656 980.5156,474.5313 Q980.7813,474.2969 981.3906,474.2969 L981.6563,474.2969 L981.6563,467.6406 L981.3906,467.6406 Q980.7656,467.6406 980.5,467.4063 Q980.25,467.1719 980.25,466.7813 Q980.25,466.4063 980.5,466.1719 Q980.7656,465.9375 981.3906,465.9375 L989.0156,465.9375 L989.0156,468.5313 Q989.0156,469.1406 988.7813,469.4063 Q988.5625,469.6563 988.1719,469.6563 Q987.7969,469.6563 987.5625,469.4063 Q987.3281,469.1406 987.3281,468.5313 L987.3281,467.6406 L983.3594,467.6406 L983.3594,470.0938 L984.8438,470.0938 Q984.8438,469.4375 984.9688,469.25 Q985.2344,468.8438 985.7031,468.8438 Q986.0781,468.8438 986.3125,469.1094 Q986.5469,469.3594 986.5469,469.9688 L986.5469,471.9375 Q986.5469,472.4844 986.4219,472.6719 Q986.1563,473.0625 985.7031,473.0625 Q985.2344,473.0625 984.9688,472.6563 Q984.8438,472.4688 984.8438,471.7969 L983.3594,471.7969 Z " fill="#000000"/><text fill="#000000" font-family="sans-serif" font-size="14" lengthAdjust="spacing" textLength="110" x="998.5" y="476.7285">ColumnDataType</text><line style="stroke:#181818;stroke-width:0.5;" x1="970.5" x2="1110.5" y1="487" y2="487"/><text fill="#000000" font-family="sans-serif" font-size="14" lengthAdjust="spacing" textLength="48" x="975.5" y="505.5332">integer,</text><text fill="#000000" font-family="sans-serif" font-size="14" lengthAdjust="spacing" textLength="26" x="975.5" y="523.1426">text,</text><text fill="#000000" font-family="sans-serif" font-size="14" lengthAdjust="spacing" textLength="24" x="975.5" y="540.752">real</text><line style="stroke:#181818;stroke-width:0.5;" x1="970.5" x2="1110.5" y1="547.8281" y2="547.8281"/></g><!--MD5=[af7d543b6251b12f84b8a2da20750b1a]
class Create--><g id="elem_Create"><rect codeLine="55" fill="#F1F1F1" height="65.6094" id="Create" rx="2.5" ry="2.5" style="stroke:#181818;stroke-width:0.5;" width="138" x="935.5" y="133"/><ellipse cx="978.85" cy="149" fill="#ADD1B2" rx="11" ry="11" style="stroke:#181818;stroke-width:1.0;"/><path d="M981.6156,144.875 Q981.7719,144.6563 981.9594,144.5469 Q982.1469,144.4375 982.3656,144.4375 Q982.7406,144.4375 982.975,144.7031 Q983.2094,144.9531 983.2094,145.5625 L983.2094,147.0156 Q983.2094,147.625 982.975,147.8906 Q982.7406,148.1563 982.3656,148.1563 Q982.0219,148.1563 981.8188,147.9531 Q981.6156,147.7656 981.5063,147.25 Q981.4594,146.8906 981.2719,146.7031 Q980.9438,146.3281 980.3344,146.1094 Q979.725,145.8906 979.1,145.8906 Q978.3344,145.8906 977.6938,146.2188 Q977.0688,146.5469 976.5688,147.2969 Q976.0844,148.0469 976.0844,149.0781 L976.0844,150.1719 Q976.0844,151.4063 976.975,152.2344 Q977.8656,153.0469 979.4594,153.0469 Q980.3969,153.0469 981.0531,152.7969 Q981.4438,152.6406 981.8656,152.2031 Q982.1313,151.9375 982.2719,151.8594 Q982.4281,151.7813 982.6313,151.7813 Q982.9594,151.7813 983.2094,152.0469 Q983.475,152.2969 983.475,152.6406 Q983.475,152.9844 983.1313,153.3906 Q982.6313,153.9688 981.8344,154.2969 Q980.7563,154.75 979.4594,154.75 Q977.9438,154.75 976.7406,154.125 Q975.7563,153.625 975.0688,152.5625 Q974.3813,151.4844 974.3813,150.2031 L974.3813,149.0469 Q974.3813,147.7188 974.9906,146.5781 Q975.6156,145.4219 976.7094,144.8125 Q977.8031,144.1875 979.0375,144.1875 Q979.7719,144.1875 980.4125,144.3594 Q981.0688,144.5156 981.6156,144.875 Z " fill="#000000"/><text fill="#000000" font-family="sans-serif" font-size="14" lengthAdjust="spacing" textLength="43" x="999.15" y="154.7285">Create</text><line style="stroke:#181818;stroke-width:0.5;" x1="936.5" x2="1072.5" y1="165" y2="165"/><ellipse cx="946.5" cy="179.3047" fill="none" rx="3" ry="3" style="stroke:#038048;stroke-width:1.0;"/><text fill="#000000" font-family="sans-serif" font-size="14" lengthAdjust="spacing" textLength="112" x="955.5" y="183.5332">Column[] columns</text><line style="stroke:#181818;stroke-width:0.5;" x1="936.5" x2="1072.5" y1="190.6094" y2="190.6094"/></g><!--MD5=[e06ef809dd6be8ce79b58fe0a1161eb8]
class Column--><g id="elem_Column"><rect codeLine="61" fill="#F1F1F1" height="136.0469" id="Column" rx="2.5" ry="2.5" style="stroke:#181818;stroke-width:0.5;" width="153" x="964" y="259"/><ellipse cx="1012.25" cy="275" fill="#ADD1B2" rx="11" ry="11" style="stroke:#181818;stroke-width:1.0;"/><path d="M1015.0156,270.875 Q1015.1719,270.6563 1015.3594,270.5469 Q1015.5469,270.4375 1015.7656,270.4375 Q1016.1406,270.4375 1016.375,270.7031 Q1016.6094,270.9531 1016.6094,271.5625 L1016.6094,273.0156 Q1016.6094,273.625 1016.375,273.8906 Q1016.1406,274.1563 1015.7656,274.1563 Q1015.4219,274.1563 1015.2188,273.9531 Q1015.0156,273.7656 1014.9063,273.25 Q1014.8594,272.8906 1014.6719,272.7031 Q1014.3438,272.3281 1013.7344,272.1094 Q1013.125,271.8906 1012.5,271.8906 Q1011.7344,271.8906 1011.0938,272.2188 Q1010.4688,272.5469 1009.9688,273.2969 Q1009.4844,274.0469 1009.4844,275.0781 L1009.4844,276.1719 Q1009.4844,277.4063 1010.375,278.2344 Q1011.2656,279.0469 1012.8594,279.0469 Q1013.7969,279.0469 1014.4531,278.7969 Q1014.8438,278.6406 1015.2656,278.2031 Q1015.5313,277.9375 1015.6719,277.8594 Q1015.8281,277.7813 1016.0313,277.7813 Q1016.3594,277.7813 1016.6094,278.0469 Q1016.875,278.2969 1016.875,278.6406 Q1016.875,278.9844 1016.5313,279.3906 Q1016.0313,279.9688 1015.2344,280.2969 Q1014.1563,280.75 1012.8594,280.75 Q1011.3438,280.75 1010.1406,280.125 Q1009.1563,279.625 1008.4688,278.5625 Q1007.7813,277.4844 1007.7813,276.2031 L1007.7813,275.0469 Q1007.7813,273.7188 1008.3906,272.5781 Q1009.0156,271.4219 1010.1094,270.8125 Q1011.2031,270.1875 1012.4375,270.1875 Q1013.1719,270.1875 1013.8125,270.3594 Q1014.4688,270.5156 1015.0156,270.875 Z " fill="#000000"/><text fill="#000000" font-family="sans-serif" font-size="14" lengthAdjust="spacing" textLength="48" x="1032.75" y="280.7285">Column</text><line style="stroke:#181818;stroke-width:0.5;" x1="965" x2="1116" y1="291" y2="291"/><text fill="#000000" font-family="sans-serif" font-size="14" lengthAdjust="spacing" textLength="76" x="970" y="309.5332">String name</text><text fill="#000000" font-family="sans-serif" font-size="14" lengthAdjust="spacing" textLength="141" x="970" y="327.1426">ColumnDataType type</text><text fill="#000000" font-family="sans-serif" font-size="14" lengthAdjust="spacing" textLength="113" x="970" y="344.752">bool isPrimaryKey</text><text fill="#000000" font-family="sans-serif" font-size="14" lengthAdjust="spacing" textLength="85" x="970" y="362.3613">bool isNotNull</text><text fill="#000000" font-family="sans-serif" font-size="14" lengthAdjust="spacing" textLength="128" x="970" y="379.9707">String? defaultValue</text><line style="stroke:#181818;stroke-width:0.5;" x1="965" x2="1116" y1="387.0469" y2="387.0469"/></g><!--MD5=[9d82e49cffacc5184d1149ac06d87e9b]
class Delete--><g id="elem_Delete"><rect codeLine="71" fill="#F1F1F1" height="48" id="Delete" rx="2.5" ry="2.5" style="stroke:#181818;stroke-width:0.5;" width="73" x="404" y="303"/><ellipse cx="419" cy="319" fill="#ADD1B2" rx="11" ry="11" style="stroke:#181818;stroke-width:1.0;"/><path d="M421.7656,314.875 Q421.9219,314.6563 422.1094,314.5469 Q422.2969,314.4375 422.5156,314.4375 Q422.8906,314.4375 423.125,314.7031 Q423.3594,314.9531 423.3594,315.5625 L423.3594,317.0156 Q423.3594,317.625 423.125,317.8906 Q422.8906,318.1563 422.5156,318.1563 Q422.1719,318.1563 421.9688,317.9531 Q421.7656,317.7656 421.6563,317.25 Q421.6094,316.8906 421.4219,316.7031 Q421.0938,316.3281 420.4844,316.1094 Q419.875,315.8906 419.25,315.8906 Q418.4844,315.8906 417.8438,316.2188 Q417.2188,316.5469 416.7188,317.2969 Q416.2344,318.0469 416.2344,319.0781 L416.2344,320.1719 Q416.2344,321.4063 417.125,322.2344 Q418.0156,323.0469 419.6094,323.0469 Q420.5469,323.0469 421.2031,322.7969 Q421.5938,322.6406 422.0156,322.2031 Q422.2813,321.9375 422.4219,321.8594 Q422.5781,321.7813 422.7813,321.7813 Q423.1094,321.7813 423.3594,322.0469 Q423.625,322.2969 423.625,322.6406 Q423.625,322.9844 423.2813,323.3906 Q422.7813,323.9688 421.9844,324.2969 Q420.9063,324.75 419.6094,324.75 Q418.0938,324.75 416.8906,324.125 Q415.9063,323.625 415.2188,322.5625 Q414.5313,321.4844 414.5313,320.2031 L414.5313,319.0469 Q414.5313,317.7188 415.1406,316.5781 Q415.7656,315.4219 416.8594,314.8125 Q417.9531,314.1875 419.1875,314.1875 Q419.9219,314.1875 420.5625,314.3594 Q421.2188,314.5156 421.7656,314.875 Z " fill="#000000"/><text fill="#000000" font-family="sans-serif" font-size="14" lengthAdjust="spacing" textLength="41" x="433" y="324.7285">Delete</text><line style="stroke:#181818;stroke-width:0.5;" x1="405" x2="476" y1="335" y2="335"/><line style="stroke:#181818;stroke-width:0.5;" x1="405" x2="476" y1="343" y2="343"/></g><!--MD5=[e2d3da46aad6ad2235ed97afaf326e98]
class Update--><g id="elem_Update"><rect codeLine="75" fill="#F1F1F1" height="65.6094" id="Update" rx="2.5" ry="2.5" style="stroke:#181818;stroke-width:0.5;" width="182" x="512.5" y="294"/><ellipse cx="576.75" cy="310" fill="#ADD1B2" rx="11" ry="11" style="stroke:#181818;stroke-width:1.0;"/><path d="M579.5156,305.875 Q579.6719,305.6563 579.8594,305.5469 Q580.0469,305.4375 580.2656,305.4375 Q580.6406,305.4375 580.875,305.7031 Q581.1094,305.9531 581.1094,306.5625 L581.1094,308.0156 Q581.1094,308.625 580.875,308.8906 Q580.6406,309.1563 580.2656,309.1563 Q579.9219,309.1563 579.7188,308.9531 Q579.5156,308.7656 579.4063,308.25 Q579.3594,307.8906 579.1719,307.7031 Q578.8438,307.3281 578.2344,307.1094 Q577.625,306.8906 577,306.8906 Q576.2344,306.8906 575.5938,307.2188 Q574.9688,307.5469 574.4688,308.2969 Q573.9844,309.0469 573.9844,310.0781 L573.9844,311.1719 Q573.9844,312.4063 574.875,313.2344 Q575.7656,314.0469 577.3594,314.0469 Q578.2969,314.0469 578.9531,313.7969 Q579.3438,313.6406 579.7656,313.2031 Q580.0313,312.9375 580.1719,312.8594 Q580.3281,312.7813 580.5313,312.7813 Q580.8594,312.7813 581.1094,313.0469 Q581.375,313.2969 581.375,313.6406 Q581.375,313.9844 581.0313,314.3906 Q580.5313,314.9688 579.7344,315.2969 Q578.6563,315.75 577.3594,315.75 Q575.8438,315.75 574.6406,315.125 Q573.6563,314.625 572.9688,313.5625 Q572.2813,312.4844 572.2813,311.2031 L572.2813,310.0469 Q572.2813,308.7188 572.8906,307.5781 Q573.5156,306.4219 574.6094,305.8125 Q575.7031,305.1875 576.9375,305.1875 Q577.6719,305.1875 578.3125,305.3594 Q578.9688,305.5156 579.5156,305.875 Z " fill="#000000"/><text fill="#000000" font-family="sans-serif" font-size="14" lengthAdjust="spacing" textLength="45" x="597.25" y="315.7285">Update</text><line style="stroke:#181818;stroke-width:0.5;" x1="513.5" x2="693.5" y1="326" y2="326"/><text fill="#000000" font-family="sans-serif" font-size="14" lengthAdjust="spacing" textLength="170" x="518.5" y="344.5332">Map&lt;String, String&gt; values</text><line style="stroke:#181818;stroke-width:0.5;" x1="513.5" x2="693.5" y1="351.6094" y2="351.6094"/></g><!--MD5=[25fb7419bbbcbf228ba4866db67def41]
class Select--><g id="elem_Select"><rect codeLine="80" fill="#F1F1F1" height="83.2188" id="Select" rx="2.5" ry="2.5" style="stroke:#181818;stroke-width:0.5;" width="127" x="730" y="285.5"/><ellipse cx="770.2" cy="301.5" fill="#ADD1B2" rx="11" ry="11" style="stroke:#181818;stroke-width:1.0;"/><path d="M772.9656,297.375 Q773.1219,297.1563 773.3094,297.0469 Q773.4969,296.9375 773.7156,296.9375 Q774.0906,296.9375 774.325,297.2031 Q774.5594,297.4531 774.5594,298.0625 L774.5594,299.5156 Q774.5594,300.125 774.325,300.3906 Q774.0906,300.6563 773.7156,300.6563 Q773.3719,300.6563 773.1688,300.4531 Q772.9656,300.2656 772.8563,299.75 Q772.8094,299.3906 772.6219,299.2031 Q772.2938,298.8281 771.6844,298.6094 Q771.075,298.3906 770.45,298.3906 Q769.6844,298.3906 769.0438,298.7188 Q768.4188,299.0469 767.9188,299.7969 Q767.4344,300.5469 767.4344,301.5781 L767.4344,302.6719 Q767.4344,303.9063 768.325,304.7344 Q769.2156,305.5469 770.8094,305.5469 Q771.7469,305.5469 772.4031,305.2969 Q772.7938,305.1406 773.2156,304.7031 Q773.4813,304.4375 773.6219,304.3594 Q773.7781,304.2813 773.9813,304.2813 Q774.3094,304.2813 774.5594,304.5469 Q774.825,304.7969 774.825,305.1406 Q774.825,305.4844 774.4813,305.8906 Q773.9813,306.4688 773.1844,306.7969 Q772.1063,307.25 770.8094,307.25 Q769.2938,307.25 768.0906,306.625 Q767.1063,306.125 766.4188,305.0625 Q765.7313,303.9844 765.7313,302.7031 L765.7313,301.5469 Q765.7313,300.2188 766.3406,299.0781 Q766.9656,297.9219 768.0594,297.3125 Q769.1531,296.6875 770.3875,296.6875 Q771.1219,296.6875 771.7625,296.8594 Q772.4188,297.0156 772.9656,297.375 Z " fill="#000000"/><text fill="#000000" font-family="sans-serif" font-size="14" lengthAdjust="spacing" textLength="39" x="789.8" y="307.2285">Select</text><line style="stroke:#181818;stroke-width:0.5;" x1="731" x2="856" y1="317.5" y2="317.5"/><ellipse cx="741" cy="331.8047" fill="none" rx="3" ry="3" style="stroke:#038048;stroke-width:1.0;"/><text fill="#000000" font-family="sans-serif" font-size="14" lengthAdjust="spacing" textLength="101" x="750" y="336.0332">String[] columns</text><ellipse cx="741" cy="349.4141" fill="none" rx="3" ry="3" style="stroke:#038048;stroke-width:1.0;"/><text fill="#000000" font-family="sans-serif" font-size="14" lengthAdjust="spacing" textLength="66" x="750" y="353.6426">Join[] joins</text><line style="stroke:#181818;stroke-width:0.5;" x1="731" x2="856" y1="360.7188" y2="360.7188"/></g><!--MD5=[0ab3aa580b5e422d4f0256f9b3236a21]
class Join--><g id="elem_Join"><rect codeLine="86" fill="#F1F1F1" height="65.6094" id="Join" rx="2.5" ry="2.5" style="stroke:#181818;stroke-width:0.5;" width="96" x="791.5" y="472.5"/><ellipse cx="824.05" cy="488.5" fill="#ADD1B2" rx="11" ry="11" style="stroke:#181818;stroke-width:1.0;"/><path d="M826.8156,484.375 Q826.9719,484.1563 827.1594,484.0469 Q827.3469,483.9375 827.5656,483.9375 Q827.9406,483.9375 828.175,484.2031 Q828.4094,484.4531 828.4094,485.0625 L828.4094,486.5156 Q828.4094,487.125 828.175,487.3906 Q827.9406,487.6563 827.5656,487.6563 Q827.2219,487.6563 827.0188,487.4531 Q826.8156,487.2656 826.7063,486.75 Q826.6594,486.3906 826.4719,486.2031 Q826.1438,485.8281 825.5344,485.6094 Q824.925,485.3906 824.3,485.3906 Q823.5344,485.3906 822.8938,485.7188 Q822.2688,486.0469 821.7688,486.7969 Q821.2844,487.5469 821.2844,488.5781 L821.2844,489.6719 Q821.2844,490.9063 822.175,491.7344 Q823.0656,492.5469 824.6594,492.5469 Q825.5969,492.5469 826.2531,492.2969 Q826.6438,492.1406 827.0656,491.7031 Q827.3313,491.4375 827.4719,491.3594 Q827.6281,491.2813 827.8313,491.2813 Q828.1594,491.2813 828.4094,491.5469 Q828.675,491.7969 828.675,492.1406 Q828.675,492.4844 828.3313,492.8906 Q827.8313,493.4688 827.0344,493.7969 Q825.9563,494.25 824.6594,494.25 Q823.1438,494.25 821.9406,493.625 Q820.9563,493.125 820.2688,492.0625 Q819.5813,490.9844 819.5813,489.7031 L819.5813,488.5469 Q819.5813,487.2188 820.1906,486.0781 Q820.8156,484.9219 821.9094,484.3125 Q823.0031,483.6875 824.2375,483.6875 Q824.9719,483.6875 825.6125,483.8594 Q826.2688,484.0156 826.8156,484.375 Z " fill="#000000"/><text fill="#000000" font-family="sans-serif" font-size="14" lengthAdjust="spacing" textLength="25" x="841.95" y="494.2285">Join</text><line style="stroke:#181818;stroke-width:0.5;" x1="792.5" x2="886.5" y1="504.5" y2="504.5"/><ellipse cx="802.5" cy="518.8047" fill="none" rx="3" ry="3" style="stroke:#038048;stroke-width:1.0;"/><text fill="#000000" font-family="sans-serif" font-size="14" lengthAdjust="spacing" textLength="70" x="811.5" y="523.0332">String alias</text><line style="stroke:#181818;stroke-width:0.5;" x1="792.5" x2="886.5" y1="530.1094" y2="530.1094"/></g><!--MD5=[90c81c5abb68fc1cf50baa0b36284b44]
class Insert--><g id="elem_Insert"><rect codeLine="92" fill="#F1F1F1" height="65.6094" id="Insert" rx="2.5" ry="2.5" style="stroke:#181818;stroke-width:0.5;" width="196" x="1108.5" y="133"/><ellipse cx="1184.75" cy="149" fill="#ADD1B2" rx="11" ry="11" style="stroke:#181818;stroke-width:1.0;"/><path d="M1187.5156,144.875 Q1187.6719,144.6563 1187.8594,144.5469 Q1188.0469,144.4375 1188.2656,144.4375 Q1188.6406,144.4375 1188.875,144.7031 Q1189.1094,144.9531 1189.1094,145.5625 L1189.1094,147.0156 Q1189.1094,147.625 1188.875,147.8906 Q1188.6406,148.1563 1188.2656,148.1563 Q1187.9219,148.1563 1187.7188,147.9531 Q1187.5156,147.7656 1187.4063,147.25 Q1187.3594,146.8906 1187.1719,146.7031 Q1186.8438,146.3281 1186.2344,146.1094 Q1185.625,145.8906 1185,145.8906 Q1184.2344,145.8906 1183.5938,146.2188 Q1182.9688,146.5469 1182.4688,147.2969 Q1181.9844,148.0469 1181.9844,149.0781 L1181.9844,150.1719 Q1181.9844,151.4063 1182.875,152.2344 Q1183.7656,153.0469 1185.3594,153.0469 Q1186.2969,153.0469 1186.9531,152.7969 Q1187.3438,152.6406 1187.7656,152.2031 Q1188.0313,151.9375 1188.1719,151.8594 Q1188.3281,151.7813 1188.5313,151.7813 Q1188.8594,151.7813 1189.1094,152.0469 Q1189.375,152.2969 1189.375,152.6406 Q1189.375,152.9844 1189.0313,153.3906 Q1188.5313,153.9688 1187.7344,154.2969 Q1186.6563,154.75 1185.3594,154.75 Q1183.8438,154.75 1182.6406,154.125 Q1181.6563,153.625 1180.9688,152.5625 Q1180.2813,151.4844 1180.2813,150.2031 L1180.2813,149.0469 Q1180.2813,147.7188 1180.8906,146.5781 Q1181.5156,145.4219 1182.6094,144.8125 Q1183.7031,144.1875 1184.9375,144.1875 Q1185.6719,144.1875 1186.3125,144.3594 Q1186.9688,144.5156 1187.5156,144.875 Z " fill="#000000"/><text fill="#000000" font-family="sans-serif" font-size="14" lengthAdjust="spacing" textLength="35" x="1205.25" y="154.7285">Insert</text><line style="stroke:#181818;stroke-width:0.5;" x1="1109.5" x2="1303.5" y1="165" y2="165"/><ellipse cx="1119.5" cy="179.3047" fill="none" rx="3" ry="3" style="stroke:#038048;stroke-width:1.0;"/><text fill="#000000" font-family="sans-serif" font-size="14" lengthAdjust="spacing" textLength="170" x="1128.5" y="183.5332">Map&lt;String, String&gt; values</text><line style="stroke:#181818;stroke-width:0.5;" x1="1109.5" x2="1303.5" y1="190.6094" y2="190.6094"/></g><!--MD5=[fcbf7df592e60eddd287d4afa8f4f07d]
class QueryBuilder--><g id="elem_QueryBuilder"><rect codeLine="99" fill="#F1F1F1" height="65.6094" id="QueryBuilder" rx="2.5" ry="2.5" style="stroke:#181818;stroke-width:0.5;" width="115" x="1485" y="7"/><ellipse cx="1500" cy="23" fill="#B4A7E5" rx="11" ry="11" style="stroke:#181818;stroke-width:1.0;"/><path d="M1500.9531,19.6406 L1500.9531,26.2969 L1502.6719,26.2969 Q1503.2813,26.2969 1503.5469,26.5313 Q1503.8125,26.7656 1503.8125,27.1563 Q1503.8125,27.5313 1503.5469,27.7656 Q1503.2813,28 1502.6719,28 L1497.5313,28 Q1496.9219,28 1496.6563,27.7656 Q1496.3906,27.5313 1496.3906,27.1406 Q1496.3906,26.7656 1496.6563,26.5313 Q1496.9219,26.2969 1497.5313,26.2969 L1499.25,26.2969 L1499.25,19.6406 L1497.5313,19.6406 Q1496.9219,19.6406 1496.6563,19.4063 Q1496.3906,19.1719 1496.3906,18.7813 Q1496.3906,18.4063 1496.6563,18.1719 Q1496.9219,17.9375 1497.5313,17.9375 L1502.6719,17.9375 Q1503.2813,17.9375 1503.5469,18.1719 Q1503.8125,18.4063 1503.8125,18.7813 Q1503.8125,19.1719 1503.5469,19.4063 Q1503.2813,19.6406 1502.6719,19.6406 L1500.9531,19.6406 Z " fill="#000000"/><text fill="#000000" font-family="sans-serif" font-size="14" font-style="italic" lengthAdjust="spacing" textLength="83" x="1514" y="28.7285">QueryBuilder</text><line style="stroke:#181818;stroke-width:0.5;" x1="1486" x2="1599" y1="39" y2="39"/><line style="stroke:#181818;stroke-width:0.5;" x1="1486" x2="1599" y1="47" y2="47"/><ellipse cx="1496" cy="61.3047" fill="#84BE84" rx="3" ry="3" style="stroke:#038048;stroke-width:1.0;"/><text fill="#000000" font-family="sans-serif" font-size="14" lengthAdjust="spacing" textLength="81" x="1505" y="65.5332">Stirng build()</text></g><!--MD5=[e03ec6affcba7f1417ae505c48dc343e]
class FridaQueryBuilder--><g id="elem_FridaQueryBuilder"><rect codeLine="105" fill="#F1F1F1" height="65.6094" id="FridaQueryBuilder" rx="2.5" ry="2.5" style="stroke:#181818;stroke-width:0.5;" width="156" x="1528.5" y="133"/><ellipse cx="1547.1" cy="149" fill="#ADD1B2" rx="11" ry="11" style="stroke:#181818;stroke-width:1.0;"/><path d="M1549.8656,144.875 Q1550.0219,144.6563 1550.2094,144.5469 Q1550.3969,144.4375 1550.6156,144.4375 Q1550.9906,144.4375 1551.225,144.7031 Q1551.4594,144.9531 1551.4594,145.5625 L1551.4594,147.0156 Q1551.4594,147.625 1551.225,147.8906 Q1550.9906,148.1563 1550.6156,148.1563 Q1550.2719,148.1563 1550.0688,147.9531 Q1549.8656,147.7656 1549.7563,147.25 Q1549.7094,146.8906 1549.5219,146.7031 Q1549.1938,146.3281 1548.5844,146.1094 Q1547.975,145.8906 1547.35,145.8906 Q1546.5844,145.8906 1545.9438,146.2188 Q1545.3188,146.5469 1544.8188,147.2969 Q1544.3344,148.0469 1544.3344,149.0781 L1544.3344,150.1719 Q1544.3344,151.4063 1545.225,152.2344 Q1546.1156,153.0469 1547.7094,153.0469 Q1548.6469,153.0469 1549.3031,152.7969 Q1549.6938,152.6406 1550.1156,152.2031 Q1550.3813,151.9375 1550.5219,151.8594 Q1550.6781,151.7813 1550.8813,151.7813 Q1551.2094,151.7813 1551.4594,152.0469 Q1551.725,152.2969 1551.725,152.6406 Q1551.725,152.9844 1551.3813,153.3906 Q1550.8813,153.9688 1550.0844,154.2969 Q1549.0063,154.75 1547.7094,154.75 Q1546.1938,154.75 1544.9906,154.125 Q1544.0063,153.625 1543.3188,152.5625 Q1542.6313,151.4844 1542.6313,150.2031 L1542.6313,149.0469 Q1542.6313,147.7188 1543.2406,146.5781 Q1543.8656,145.4219 1544.9594,144.8125 Q1546.0531,144.1875 1547.2875,144.1875 Q1548.0219,144.1875 1548.6625,144.3594 Q1549.3188,144.5156 1549.8656,144.875 Z " fill="#000000"/><text fill="#000000" font-family="sans-serif" font-size="14" lengthAdjust="spacing" textLength="116" x="1561.9" y="154.7285">FridaQueryBuilder</text><line style="stroke:#181818;stroke-width:0.5;" x1="1529.5" x2="1683.5" y1="165" y2="165"/><ellipse cx="1539.5" cy="179.3047" fill="none" rx="3" ry="3" style="stroke:#038048;stroke-width:1.0;"/><text fill="#000000" font-family="sans-serif" font-size="14" lengthAdjust="spacing" textLength="130" x="1548.5" y="183.5332">Statement statement</text><line style="stroke:#181818;stroke-width:0.5;" x1="1529.5" x2="1683.5" y1="190.6094" y2="190.6094"/></g><!--MD5=[fbbaaa416156560ff3c46f1bb0e7b360]
class CriteriaQueryBuilder--><g id="elem_CriteriaQueryBuilder"><rect codeLine="111" fill="#F1F1F1" height="48" id="CriteriaQueryBuilder" rx="2.5" ry="2.5" style="stroke:#181818;stroke-width:0.5;" width="161" x="1335" y="303"/><ellipse cx="1350" cy="319" fill="#ADD1B2" rx="11" ry="11" style="stroke:#181818;stroke-width:1.0;"/><path d="M1352.7656,314.875 Q1352.9219,314.6563 1353.1094,314.5469 Q1353.2969,314.4375 1353.5156,314.4375 Q1353.8906,314.4375 1354.125,314.7031 Q1354.3594,314.9531 1354.3594,315.5625 L1354.3594,317.0156 Q1354.3594,317.625 1354.125,317.8906 Q1353.8906,318.1563 1353.5156,318.1563 Q1353.1719,318.1563 1352.9688,317.9531 Q1352.7656,317.7656 1352.6563,317.25 Q1352.6094,316.8906 1352.4219,316.7031 Q1352.0938,316.3281 1351.4844,316.1094 Q1350.875,315.8906 1350.25,315.8906 Q1349.4844,315.8906 1348.8438,316.2188 Q1348.2188,316.5469 1347.7188,317.2969 Q1347.2344,318.0469 1347.2344,319.0781 L1347.2344,320.1719 Q1347.2344,321.4063 1348.125,322.2344 Q1349.0156,323.0469 1350.6094,323.0469 Q1351.5469,323.0469 1352.2031,322.7969 Q1352.5938,322.6406 1353.0156,322.2031 Q1353.2813,321.9375 1353.4219,321.8594 Q1353.5781,321.7813 1353.7813,321.7813 Q1354.1094,321.7813 1354.3594,322.0469 Q1354.625,322.2969 1354.625,322.6406 Q1354.625,322.9844 1354.2813,323.3906 Q1353.7813,323.9688 1352.9844,324.2969 Q1351.9063,324.75 1350.6094,324.75 Q1349.0938,324.75 1347.8906,324.125 Q1346.9063,323.625 1346.2188,322.5625 Q1345.5313,321.4844 1345.5313,320.2031 L1345.5313,319.0469 Q1345.5313,317.7188 1346.1406,316.5781 Q1346.7656,315.4219 1347.8594,314.8125 Q1348.9531,314.1875 1350.1875,314.1875 Q1350.9219,314.1875 1351.5625,314.3594 Q1352.2188,314.5156 1352.7656,314.875 Z " fill="#000000"/><text fill="#000000" font-family="sans-serif" font-size="14" lengthAdjust="spacing" textLength="129" x="1364" y="324.7285">CriteriaQueryBuilder</text><line style="stroke:#181818;stroke-width:0.5;" x1="1336" x2="1495" y1="335" y2="335"/><line style="stroke:#181818;stroke-width:0.5;" x1="1336" x2="1495" y1="343" y2="343"/></g><!--MD5=[8319fef28745a37d69513ce2a56d0fd0]
class SelectQueryBuilder--><g id="elem_SelectQueryBuilder"><rect codeLine="115" fill="#F1F1F1" height="48" id="SelectQueryBuilder" rx="2.5" ry="2.5" style="stroke:#181818;stroke-width:0.5;" width="154" x="1146.5" y="481.5"/><ellipse cx="1161.5" cy="497.5" fill="#ADD1B2" rx="11" ry="11" style="stroke:#181818;stroke-width:1.0;"/><path d="M1164.2656,493.375 Q1164.4219,493.1563 1164.6094,493.0469 Q1164.7969,492.9375 1165.0156,492.9375 Q1165.3906,492.9375 1165.625,493.2031 Q1165.8594,493.4531 1165.8594,494.0625 L1165.8594,495.5156 Q1165.8594,496.125 1165.625,496.3906 Q1165.3906,496.6563 1165.0156,496.6563 Q1164.6719,496.6563 1164.4688,496.4531 Q1164.2656,496.2656 1164.1563,495.75 Q1164.1094,495.3906 1163.9219,495.2031 Q1163.5938,494.8281 1162.9844,494.6094 Q1162.375,494.3906 1161.75,494.3906 Q1160.9844,494.3906 1160.3438,494.7188 Q1159.7188,495.0469 1159.2188,495.7969 Q1158.7344,496.5469 1158.7344,497.5781 L1158.7344,498.6719 Q1158.7344,499.9063 1159.625,500.7344 Q1160.5156,501.5469 1162.1094,501.5469 Q1163.0469,501.5469 1163.7031,501.2969 Q1164.0938,501.1406 1164.5156,500.7031 Q1164.7813,500.4375 1164.9219,500.3594 Q1165.0781,500.2813 1165.2813,500.2813 Q1165.6094,500.2813 1165.8594,500.5469 Q1166.125,500.7969 1166.125,501.1406 Q1166.125,501.4844 1165.7813,501.8906 Q1165.2813,502.4688 1164.4844,502.7969 Q1163.4063,503.25 1162.1094,503.25 Q1160.5938,503.25 1159.3906,502.625 Q1158.4063,502.125 1157.7188,501.0625 Q1157.0313,499.9844 1157.0313,498.7031 L1157.0313,497.5469 Q1157.0313,496.2188 1157.6406,495.0781 Q1158.2656,493.9219 1159.3594,493.3125 Q1160.4531,492.6875 1161.6875,492.6875 Q1162.4219,492.6875 1163.0625,492.8594 Q1163.7188,493.0156 1164.2656,493.375 Z " fill="#000000"/><text fill="#000000" font-family="sans-serif" font-size="14" lengthAdjust="spacing" textLength="122" x="1175.5" y="503.2285">SelectQueryBuilder</text><line style="stroke:#181818;stroke-width:0.5;" x1="1147.5" x2="1299.5" y1="513.5" y2="513.5"/><line style="stroke:#181818;stroke-width:0.5;" x1="1147.5" x2="1299.5" y1="521.5" y2="521.5"/></g><!--MD5=[d092fc8866b15d395844f28351c6b1d8]
class UpdateQueryBuilder--><g id="elem_UpdateQueryBuilder"><rect codeLine="118" fill="#F1F1F1" height="48" id="UpdateQueryBuilder" rx="2.5" ry="2.5" style="stroke:#181818;stroke-width:0.5;" width="160" x="1335.5" y="481.5"/><ellipse cx="1350.5" cy="497.5" fill="#ADD1B2" rx="11" ry="11" style="stroke:#181818;stroke-width:1.0;"/><path d="M1353.2656,493.375 Q1353.4219,493.1563 1353.6094,493.0469 Q1353.7969,492.9375 1354.0156,492.9375 Q1354.3906,492.9375 1354.625,493.2031 Q1354.8594,493.4531 1354.8594,494.0625 L1354.8594,495.5156 Q1354.8594,496.125 1354.625,496.3906 Q1354.3906,496.6563 1354.0156,496.6563 Q1353.6719,496.6563 1353.4688,496.4531 Q1353.2656,496.2656 1353.1563,495.75 Q1353.1094,495.3906 1352.9219,495.2031 Q1352.5938,494.8281 1351.9844,494.6094 Q1351.375,494.3906 1350.75,494.3906 Q1349.9844,494.3906 1349.3438,494.7188 Q1348.7188,495.0469 1348.2188,495.7969 Q1347.7344,496.5469 1347.7344,497.5781 L1347.7344,498.6719 Q1347.7344,499.9063 1348.625,500.7344 Q1349.5156,501.5469 1351.1094,501.5469 Q1352.0469,501.5469 1352.7031,501.2969 Q1353.0938,501.1406 1353.5156,500.7031 Q1353.7813,500.4375 1353.9219,500.3594 Q1354.0781,500.2813 1354.2813,500.2813 Q1354.6094,500.2813 1354.8594,500.5469 Q1355.125,500.7969 1355.125,501.1406 Q1355.125,501.4844 1354.7813,501.8906 Q1354.2813,502.4688 1353.4844,502.7969 Q1352.4063,503.25 1351.1094,503.25 Q1349.5938,503.25 1348.3906,502.625 Q1347.4063,502.125 1346.7188,501.0625 Q1346.0313,499.9844 1346.0313,498.7031 L1346.0313,497.5469 Q1346.0313,496.2188 1346.6406,495.0781 Q1347.2656,493.9219 1348.3594,493.3125 Q1349.4531,492.6875 1350.6875,492.6875 Q1351.4219,492.6875 1352.0625,492.8594 Q1352.7188,493.0156 1353.2656,493.375 Z " fill="#000000"/><text fill="#000000" font-family="sans-serif" font-size="14" lengthAdjust="spacing" textLength="128" x="1364.5" y="503.2285">UpdateQueryBuilder</text><line style="stroke:#181818;stroke-width:0.5;" x1="1336.5" x2="1494.5" y1="513.5" y2="513.5"/><line style="stroke:#181818;stroke-width:0.5;" x1="1336.5" x2="1494.5" y1="521.5" y2="521.5"/></g><!--MD5=[b408fe1dddc4ab9fa340aa81f78ae5ed]
class DeleteQueryBuilder--><g id="elem_DeleteQueryBuilder"><rect codeLine="122" fill="#F1F1F1" height="48" id="DeleteQueryBuilder" rx="2.5" ry="2.5" style="stroke:#181818;stroke-width:0.5;" width="156" x="1530.5" y="481.5"/><ellipse cx="1545.5" cy="497.5" fill="#ADD1B2" rx="11" ry="11" style="stroke:#181818;stroke-width:1.0;"/><path d="M1548.2656,493.375 Q1548.4219,493.1563 1548.6094,493.0469 Q1548.7969,492.9375 1549.0156,492.9375 Q1549.3906,492.9375 1549.625,493.2031 Q1549.8594,493.4531 1549.8594,494.0625 L1549.8594,495.5156 Q1549.8594,496.125 1549.625,496.3906 Q1549.3906,496.6563 1549.0156,496.6563 Q1548.6719,496.6563 1548.4688,496.4531 Q1548.2656,496.2656 1548.1563,495.75 Q1548.1094,495.3906 1547.9219,495.2031 Q1547.5938,494.8281 1546.9844,494.6094 Q1546.375,494.3906 1545.75,494.3906 Q1544.9844,494.3906 1544.3438,494.7188 Q1543.7188,495.0469 1543.2188,495.7969 Q1542.7344,496.5469 1542.7344,497.5781 L1542.7344,498.6719 Q1542.7344,499.9063 1543.625,500.7344 Q1544.5156,501.5469 1546.1094,501.5469 Q1547.0469,501.5469 1547.7031,501.2969 Q1548.0938,501.1406 1548.5156,500.7031 Q1548.7813,500.4375 1548.9219,500.3594 Q1549.0781,500.2813 1549.2813,500.2813 Q1549.6094,500.2813 1549.8594,500.5469 Q1550.125,500.7969 1550.125,501.1406 Q1550.125,501.4844 1549.7813,501.8906 Q1549.2813,502.4688 1548.4844,502.7969 Q1547.4063,503.25 1546.1094,503.25 Q1544.5938,503.25 1543.3906,502.625 Q1542.4063,502.125 1541.7188,501.0625 Q1541.0313,499.9844 1541.0313,498.7031 L1541.0313,497.5469 Q1541.0313,496.2188 1541.6406,495.0781 Q1542.2656,493.9219 1543.3594,493.3125 Q1544.4531,492.6875 1545.6875,492.6875 Q1546.4219,492.6875 1547.0625,492.8594 Q1547.7188,493.0156 1548.2656,493.375 Z " fill="#000000"/><text fill="#000000" font-family="sans-serif" font-size="14" lengthAdjust="spacing" textLength="124" x="1559.5" y="503.2285">DeleteQueryBuilder</text><line style="stroke:#181818;stroke-width:0.5;" x1="1531.5" x2="1685.5" y1="513.5" y2="513.5"/><line style="stroke:#181818;stroke-width:0.5;" x1="1531.5" x2="1685.5" y1="521.5" y2="521.5"/></g><!--MD5=[7e2902794903237e18c34b3a470c65c7]
class InsertQueryBuilder--><g id="elem_InsertQueryBuilder"><rect codeLine="125" fill="#F1F1F1" height="48" id="InsertQueryBuilder" rx="2.5" ry="2.5" style="stroke:#181818;stroke-width:0.5;" width="150" x="1531.5" y="303"/><ellipse cx="1546.5" cy="319" fill="#ADD1B2" rx="11" ry="11" style="stroke:#181818;stroke-width:1.0;"/><path d="M1549.2656,314.875 Q1549.4219,314.6563 1549.6094,314.5469 Q1549.7969,314.4375 1550.0156,314.4375 Q1550.3906,314.4375 1550.625,314.7031 Q1550.8594,314.9531 1550.8594,315.5625 L1550.8594,317.0156 Q1550.8594,317.625 1550.625,317.8906 Q1550.3906,318.1563 1550.0156,318.1563 Q1549.6719,318.1563 1549.4688,317.9531 Q1549.2656,317.7656 1549.1563,317.25 Q1549.1094,316.8906 1548.9219,316.7031 Q1548.5938,316.3281 1547.9844,316.1094 Q1547.375,315.8906 1546.75,315.8906 Q1545.9844,315.8906 1545.3438,316.2188 Q1544.7188,316.5469 1544.2188,317.2969 Q1543.7344,318.0469 1543.7344,319.0781 L1543.7344,320.1719 Q1543.7344,321.4063 1544.625,322.2344 Q1545.5156,323.0469 1547.1094,323.0469 Q1548.0469,323.0469 1548.7031,322.7969 Q1549.0938,322.6406 1549.5156,322.2031 Q1549.7813,321.9375 1549.9219,321.8594 Q1550.0781,321.7813 1550.2813,321.7813 Q1550.6094,321.7813 1550.8594,322.0469 Q1551.125,322.2969 1551.125,322.6406 Q1551.125,322.9844 1550.7813,323.3906 Q1550.2813,323.9688 1549.4844,324.2969 Q1548.4063,324.75 1547.1094,324.75 Q1545.5938,324.75 1544.3906,324.125 Q1543.4063,323.625 1542.7188,322.5625 Q1542.0313,321.4844 1542.0313,320.2031 L1542.0313,319.0469 Q1542.0313,317.7188 1542.6406,316.5781 Q1543.2656,315.4219 1544.3594,314.8125 Q1545.4531,314.1875 1546.6875,314.1875 Q1547.4219,314.1875 1548.0625,314.3594 Q1548.7188,314.5156 1549.2656,314.875 Z " fill="#000000"/><text fill="#000000" font-family="sans-serif" font-size="14" lengthAdjust="spacing" textLength="118" x="1560.5" y="324.7285">InsertQueryBuilder</text><line style="stroke:#181818;stroke-width:0.5;" x1="1532.5" x2="1680.5" y1="335" y2="335"/><line style="stroke:#181818;stroke-width:0.5;" x1="1532.5" x2="1680.5" y1="343" y2="343"/></g><!--MD5=[b13fe6db246a6b83ff255ce7b048df8f]
class CreateQueryBuilder--><g id="elem_CreateQueryBuilder"><rect codeLine="130" fill="#F1F1F1" height="48" id="CreateQueryBuilder" rx="2.5" ry="2.5" style="stroke:#181818;stroke-width:0.5;" width="158" x="1716.5" y="303"/><ellipse cx="1731.5" cy="319" fill="#ADD1B2" rx="11" ry="11" style="stroke:#181818;stroke-width:1.0;"/><path d="M1734.2656,314.875 Q1734.4219,314.6563 1734.6094,314.5469 Q1734.7969,314.4375 1735.0156,314.4375 Q1735.3906,314.4375 1735.625,314.7031 Q1735.8594,314.9531 1735.8594,315.5625 L1735.8594,317.0156 Q1735.8594,317.625 1735.625,317.8906 Q1735.3906,318.1563 1735.0156,318.1563 Q1734.6719,318.1563 1734.4688,317.9531 Q1734.2656,317.7656 1734.1563,317.25 Q1734.1094,316.8906 1733.9219,316.7031 Q1733.5938,316.3281 1732.9844,316.1094 Q1732.375,315.8906 1731.75,315.8906 Q1730.9844,315.8906 1730.3438,316.2188 Q1729.7188,316.5469 1729.2188,317.2969 Q1728.7344,318.0469 1728.7344,319.0781 L1728.7344,320.1719 Q1728.7344,321.4063 1729.625,322.2344 Q1730.5156,323.0469 1732.1094,323.0469 Q1733.0469,323.0469 1733.7031,322.7969 Q1734.0938,322.6406 1734.5156,322.2031 Q1734.7813,321.9375 1734.9219,321.8594 Q1735.0781,321.7813 1735.2813,321.7813 Q1735.6094,321.7813 1735.8594,322.0469 Q1736.125,322.2969 1736.125,322.6406 Q1736.125,322.9844 1735.7813,323.3906 Q1735.2813,323.9688 1734.4844,324.2969 Q1733.4063,324.75 1732.1094,324.75 Q1730.5938,324.75 1729.3906,324.125 Q1728.4063,323.625 1727.7188,322.5625 Q1727.0313,321.4844 1727.0313,320.2031 L1727.0313,319.0469 Q1727.0313,317.7188 1727.6406,316.5781 Q1728.2656,315.4219 1729.3594,314.8125 Q1730.4531,314.1875 1731.6875,314.1875 Q1732.4219,314.1875 1733.0625,314.3594 Q1733.7188,314.5156 1734.2656,314.875 Z " fill="#000000"/><text fill="#000000" font-family="sans-serif" font-size="14" lengthAdjust="spacing" textLength="126" x="1745.5" y="324.7285">CreateQueryBuilder</text><line style="stroke:#181818;stroke-width:0.5;" x1="1717.5" x2="1873.5" y1="335" y2="335"/><line style="stroke:#181818;stroke-width:0.5;" x1="1717.5" x2="1873.5" y1="343" y2="343"/></g><!--MD5=[ed6624c6556d5e7b1bd23032162d20b7]
class Client--><g id="elem_Client"><rect codeLine="137" fill="#F1F1F1" height="48" id="Client" rx="2.5" ry="2.5" style="stroke:#181818;stroke-width:0.5;" width="68" x="1635.5" y="16"/><ellipse cx="1650.5" cy="32" fill="#ADD1B2" rx="11" ry="11" style="stroke:#181818;stroke-width:1.0;"/><path d="M1653.2656,27.875 Q1653.4219,27.6563 1653.6094,27.5469 Q1653.7969,27.4375 1654.0156,27.4375 Q1654.3906,27.4375 1654.625,27.7031 Q1654.8594,27.9531 1654.8594,28.5625 L1654.8594,30.0156 Q1654.8594,30.625 1654.625,30.8906 Q1654.3906,31.1563 1654.0156,31.1563 Q1653.6719,31.1563 1653.4688,30.9531 Q1653.2656,30.7656 1653.1563,30.25 Q1653.1094,29.8906 1652.9219,29.7031 Q1652.5938,29.3281 1651.9844,29.1094 Q1651.375,28.8906 1650.75,28.8906 Q1649.9844,28.8906 1649.3438,29.2188 Q1648.7188,29.5469 1648.2188,30.2969 Q1647.7344,31.0469 1647.7344,32.0781 L1647.7344,33.1719 Q1647.7344,34.4063 1648.625,35.2344 Q1649.5156,36.0469 1651.1094,36.0469 Q1652.0469,36.0469 1652.7031,35.7969 Q1653.0938,35.6406 1653.5156,35.2031 Q1653.7813,34.9375 1653.9219,34.8594 Q1654.0781,34.7813 1654.2813,34.7813 Q1654.6094,34.7813 1654.8594,35.0469 Q1655.125,35.2969 1655.125,35.6406 Q1655.125,35.9844 1654.7813,36.3906 Q1654.2813,36.9688 1653.4844,37.2969 Q1652.4063,37.75 1651.1094,37.75 Q1649.5938,37.75 1648.3906,37.125 Q1647.4063,36.625 1646.7188,35.5625 Q1646.0313,34.4844 1646.0313,33.2031 L1646.0313,32.0469 Q1646.0313,30.7188 1646.6406,29.5781 Q1647.2656,28.4219 1648.3594,27.8125 Q1649.4531,27.1875 1650.6875,27.1875 Q1651.4219,27.1875 1652.0625,27.3594 Q1652.7188,27.5156 1653.2656,27.875 Z " fill="#000000"/><text fill="#000000" font-family="sans-serif" font-size="14" lengthAdjust="spacing" textLength="36" x="1664.5" y="37.7285">Client</text><line style="stroke:#181818;stroke-width:0.5;" x1="1636.5" x2="1702.5" y1="48" y2="48"/><line style="stroke:#181818;stroke-width:0.5;" x1="1636.5" x2="1702.5" y1="56" y2="56"/></g><!--MD5=[51b068c1f6d80021dec0615ce7883fc6]
reverse link Statement to CriteriaStatement--><g id="link_Statement_CriteriaStatement"><path d="M930.81,70.86 C881.87,90.69 817.96,116.59 769.57,136.2 " fill="none" id="Statement-backto-CriteriaStatement" style="stroke:#181818;stroke-width:1.0;"/><polygon fill="none" points="928.28,64.34,949.44,63.31,933.53,77.31,928.28,64.34" style="stroke:#181818;stroke-width:1.0;"/></g><!--MD5=[4785e05943df2c690b70309ca9eb7ebc]
reverse link CriteriaStatement to Criterion--><g id="link_CriteriaStatement_Criterion"><path codeLine="8" d="M614.51,184.97 C550.36,200.29 460.67,225.22 386.5,259 C365.54,268.54 343.85,281.74 325.66,293.9 " fill="none" id="CriteriaStatement-backto-Criterion" style="stroke:#181818;stroke-width:1.0;"/><polygon fill="none" points="627.39,181.94,620.634,179.4189,615.7083,184.6855,622.4643,187.2067,627.39,181.94" style="stroke:#181818;stroke-width:1.0;"/></g><!--MD5=[b459438bcfc87cc4292431aceb669407]
reverse link Criterion to CriterionCompare--><g id="link_Criterion_CriterionCompare"><path d="M252.57,378.07 C236.86,405.25 217.69,438.41 202.93,463.96 " fill="none" id="Criterion-backto-CriterionCompare" style="stroke:#181818;stroke-width:1.0;"/><polygon fill="none" points="246.72,374.19,262.79,360.37,258.85,381.19,246.72,374.19" style="stroke:#181818;stroke-width:1.0;"/></g><!--MD5=[16355476bc66e2c394927ff489694d9e]
reverse link CriterionCompare to Equals--><g id="link_CriterionCompare_Equals"><path d="M123.45,561.51 C104.08,580.52 83.42,600.8 68.1,615.84 " fill="none" id="CriterionCompare-backto-Equals" style="stroke:#181818;stroke-width:1.0;"/><polygon fill="none" points="118.72,556.35,137.89,547.34,128.52,566.34,118.72,556.35" style="stroke:#181818;stroke-width:1.0;"/></g><!--MD5=[2083532366aceaf7bbc4e58db99804d5]
reverse link CriterionCompare to NotEquals--><g id="link_CriterionCompare_NotEquals"><path d="M173.06,567.42 C171.24,584.64 169.37,602.35 167.95,615.84 " fill="none" id="CriterionCompare-backto-NotEquals" style="stroke:#181818;stroke-width:1.0;"/><polygon fill="none" points="166.12,566.49,175.19,547.34,180.04,567.96,166.12,566.49" style="stroke:#181818;stroke-width:1.0;"/></g><!--MD5=[1f73fcded5f6c8f5d47cbe0d736eefb9]
reverse link CriterionCompare to Like--><g id="link_CriterionCompare_Like"><path d="M221.64,563.47 C235.27,581.91 249.63,601.31 260.37,615.84 " fill="none" id="CriterionCompare-backto-Like" style="stroke:#181818;stroke-width:1.0;"/><polygon fill="none" points="215.97,567.58,209.7,547.34,227.22,559.25,215.97,567.58" style="stroke:#181818;stroke-width:1.0;"/></g><!--MD5=[8b3cea631a8ecc629ffe75c75c813806]
reverse link Criterion to CriterionLogic--><g id="link_Criterion_CriterionLogic"><path d="M306.97,378.52 C322.19,408.7 341.07,446.14 354.28,472.33 " fill="none" id="Criterion-backto-CriterionLogic" style="stroke:#181818;stroke-width:1.0;"/><polygon fill="none" points="300.58,381.38,297.82,360.37,313.08,375.08,300.58,381.38" style="stroke:#181818;stroke-width:1.0;"/></g><!--MD5=[1aa0e8739ffb915b80cf0ecac438930c]
reverse link CriterionLogic to And--><g id="link_CriterionLogic_And"><path d="M370.5,558.68 C370.5,578.52 370.5,600.14 370.5,615.94 " fill="none" id="CriterionLogic-backto-And" style="stroke:#181818;stroke-width:1.0;"/><polygon fill="none" points="363.5,558.57,370.5,538.57,377.5,558.57,363.5,558.57" style="stroke:#181818;stroke-width:1.0;"/></g><!--MD5=[68ca8bb66babe19ecc9fa02acff5d9e5]
reverse link CriterionLogic to Or--><g id="link_CriterionLogic_Or"><path d="M403.07,555.54 C416.81,576.22 432.13,599.3 443.18,615.94 " fill="none" id="CriterionLogic-backto-Or" style="stroke:#181818;stroke-width:1.0;"/><polygon fill="none" points="397.04,559.11,391.8,538.57,408.7,551.36,397.04,559.11" style="stroke:#181818;stroke-width:1.0;"/></g><!--MD5=[d24dbb618d012a0410e0c652605f9d6d]
reverse link Statement to Create--><g id="link_Statement_Create"><path d="M1004.5,93.45 C1004.5,106.85 1004.5,120.87 1004.5,132.91 " fill="none" id="Statement-backto-Create" style="stroke:#181818;stroke-width:1.0;"/><polygon fill="none" points="997.5,93.26,1004.5,73.26,1011.5,93.26,997.5,93.26" style="stroke:#181818;stroke-width:1.0;"/></g><!--MD5=[2118f1810bdce1b4727f259dab7cfd1c]
reverse link Create to Column--><g id="link_Create_Column"><path codeLine="59" d="M1014.67,211.92 C1017.96,226.47 1021.69,242.93 1025.27,258.74 " fill="none" id="Create-backto-Column" style="stroke:#181818;stroke-width:1.0;"/><polygon fill="#181818" points="1011.79,199.18,1009.2149,205.9157,1014.442,210.8833,1017.0171,204.1476,1011.79,199.18" style="stroke:#181818;stroke-width:1.0;"/></g><!--MD5=[201f49449e2af94ad53a81dc326c5981]
link Column to ColumnDataType--><g id="link_Column_ColumnDataType"><path codeLine="68" d="M1040.5,395.23 C1040.5,413.15 1040.5,432.3 1040.5,449.48 " fill="none" id="Column-to-ColumnDataType" style="stroke:#181818;stroke-width:1.0;"/><polygon fill="#181818" points="1040.5,454.75,1044.5,445.75,1040.5,449.75,1036.5,445.75,1040.5,454.75" style="stroke:#181818;stroke-width:1.0;"/></g><!--MD5=[407ceb1295bac43c7db3a9623f02ae56]
reverse link CriteriaStatement to Delete--><g id="link_CriteriaStatement_Delete"><path d="M608.66,196.92 C571.14,212 528.48,232.74 494.5,259 C478.78,271.15 464.82,288.76 455.03,302.88 " fill="none" id="CriteriaStatement-backto-Delete" style="stroke:#181818;stroke-width:1.0;"/><polygon fill="none" points="606.27,190.34,627.45,189.65,611.32,203.39,606.27,190.34" style="stroke:#181818;stroke-width:1.0;"/></g><!--MD5=[11248a0c1514b9c77a815ea97e8d3fd6]
reverse link CriteriaStatement to Update--><g id="link_CriteriaStatement_Update"><path d="M668.91,216.53 C653.84,241.75 635.95,271.69 622.7,293.87 " fill="none" id="CriteriaStatement-backto-Update" style="stroke:#181818;stroke-width:1.0;"/><polygon fill="none" points="663.01,212.75,679.28,199.18,675.03,219.94,663.01,212.75" style="stroke:#181818;stroke-width:1.0;"/></g><!--MD5=[11f3575cf4f8f38ad463992f09439778]
reverse link CriteriaStatement to Select--><g id="link_CriteriaStatement_Select"><path d="M728,216.37 C741.24,238.54 756.67,264.36 769.23,285.38 " fill="none" id="CriteriaStatement-backto-Select" style="stroke:#181818;stroke-width:1.0;"/><polygon fill="none" points="721.97,219.94,717.72,199.18,733.99,212.75,721.97,219.94" style="stroke:#181818;stroke-width:1.0;"/></g><!--MD5=[33992e653480c7cd274f2d78be573914]
reverse link CriteriaStatement to Join--><g id="link_CriteriaStatement_Join"><path d="M788.47,192.12 C821.46,206.16 855.37,227.42 874.5,259 C915.31,326.39 879.89,422.88 856.37,472.44 " fill="none" id="CriteriaStatement-backto-Join" style="stroke:#181818;stroke-width:1.0;"/><polygon fill="none" points="785.9,198.63,769.8,184.85,790.98,185.58,785.9,198.63" style="stroke:#181818;stroke-width:1.0;"/></g><!--MD5=[41114818dbe690df20fcfbbe8b3cbf81]
reverse link Select to Join--><g id="link_Select_Join"><path codeLine="90" d="M807.47,381.62 C815.19,411.22 824.52,447.01 831.11,472.31 " fill="none" id="Select-backto-Join" style="stroke:#181818;stroke-width:1.0;"/><polygon fill="none" points="804.17,368.94,801.8081,375.7533,807.1889,380.5541,809.5508,373.7407,804.17,368.94" style="stroke:#181818;stroke-width:1.0;"/></g><!--MD5=[7ae76b33dd928567bd0d739c3c47f0be]
reverse link Statement to Insert--><g id="link_Statement_Insert"><path d="M1073.93,83.62 C1100.2,99.75 1129.64,117.82 1154.09,132.82 " fill="none" id="Statement-backto-Insert" style="stroke:#181818;stroke-width:1.0;"/><polygon fill="none" points="1070.17,89.52,1056.78,73.09,1077.49,77.59,1070.17,89.52" style="stroke:#181818;stroke-width:1.0;"/></g><!--MD5=[bc50a54c508a79624b623e6c22b79872]
reverse link QueryBuilder to FridaQueryBuilder--><g id="link_QueryBuilder_FridaQueryBuilder"><path d="M1568.34,91.06 C1575.62,105.18 1583.35,120.15 1589.94,132.91 " fill="none" id="QueryBuilder-backto-FridaQueryBuilder" style="stroke:#181818;stroke-width:1.0;stroke-dasharray:7.0,7.0;"/><polygon fill="none" points="1562.1,94.24,1559.15,73.26,1574.54,87.82,1562.1,94.24" style="stroke:#181818;stroke-width:1.0;"/></g><!--MD5=[0263d0ec9fd8943261c45f61036f8f43]
reverse link FridaQueryBuilder to CriteriaQueryBuilder--><g id="link_FridaQueryBuilder_CriteriaQueryBuilder"><path d="M1541.41,211.54 C1503.64,241.23 1458.98,279.03 1433.96,302.88 " fill="none" id="FridaQueryBuilder-backto-CriteriaQueryBuilder" style="stroke:#181818;stroke-width:1.0;"/><polygon fill="none" points="1537.27,205.89,1557.37,199.18,1545.85,216.96,1537.27,205.89" style="stroke:#181818;stroke-width:1.0;"/></g><!--MD5=[426006e6ed7eb1f01539453915ab03cb]
link FridaQueryBuilder to CriteriaQueryBuilder--><g id="link_FridaQueryBuilder_CriteriaQueryBuilder"><path codeLine="140" d="M1578.95,199.18 C1546.87,228.74 1494.63,272.02 1457.57,299.6 " fill="none" id="FridaQueryBuilder-to-CriteriaQueryBuilder" style="stroke:#181818;stroke-width:1.0;"/><polygon fill="#181818" points="1453.13,302.88,1462.7473,300.7568,1457.1538,299.9121,1457.9986,294.3186,1453.13,302.88" style="stroke:#181818;stroke-width:1.0;"/></g><!--MD5=[6beaa51da90666732830e94133a80798]
reverse link CriteriaQueryBuilder to SelectQueryBuilder--><g id="link_CriteriaQueryBuilder_SelectQueryBuilder"><path d="M1366.03,363.83 C1324.35,398.97 1267.73,451.49 1239.67,481.42 " fill="none" id="CriteriaQueryBuilder-backto-SelectQueryBuilder" style="stroke:#181818;stroke-width:1.0;"/><polygon fill="none" points="1361.59,358.42,1381.46,351.07,1370.51,369.21,1361.59,358.42" style="stroke:#181818;stroke-width:1.0;"/></g><!--MD5=[d5cf9d4f582a106b7583415e7daeec05]
link CriteriaQueryBuilder to SelectQueryBuilder--><g id="link_CriteriaQueryBuilder_SelectQueryBuilder"><path codeLine="144" d="M1399.86,351.07 C1369.43,383.84 1304.48,443.7 1262.1,478.17 " fill="none" id="CriteriaQueryBuilder-to-SelectQueryBuilder" style="stroke:#181818;stroke-width:1.0;"/><polygon fill="#181818" points="1258.07,481.42,1267.5831,478.8702,1261.9576,478.2757,1262.5521,472.6501,1258.07,481.42" style="stroke:#181818;stroke-width:1.0;"/></g><!--MD5=[74dac402acb26024029ed89c263f7053]
reverse link CriteriaQueryBuilder to UpdateQueryBuilder--><g id="link_CriteriaQueryBuilder_UpdateQueryBuilder"><path d="M1404.35,371.27 C1401.64,406.05 1402.37,453.54 1406.56,481.42 " fill="none" id="CriteriaQueryBuilder-backto-UpdateQueryBuilder" style="stroke:#181818;stroke-width:1.0;"/><polygon fill="none" points="1397.43,370.19,1406.56,351.07,1411.35,371.72,1397.43,370.19" style="stroke:#181818;stroke-width:1.0;"/></g><!--MD5=[25dfeb7a1fba9bd1bdc0ccb3345385a5]
link CriteriaQueryBuilder to UpdateQueryBuilder--><g id="link_CriteriaQueryBuilder_UpdateQueryBuilder"><path codeLine="145" d="M1424.96,351.07 C1430.07,383.18 1430.33,441.3 1425.74,476.05 " fill="none" id="CriteriaQueryBuilder-to-UpdateQueryBuilder" style="stroke:#181818;stroke-width:1.0;"/><polygon fill="#181818" points="1424.96,481.42,1430.2061,473.0846,1425.6751,476.4714,1422.2883,471.9404,1424.96,481.42" style="stroke:#181818;stroke-width:1.0;"/></g><!--MD5=[21c761ff2780bfcb7ba7a48ac6bd7862]
reverse link CriteriaQueryBuilder to DeleteQueryBuilder--><g id="link_CriteriaQueryBuilder_DeleteQueryBuilder"><path d="M1445.82,365.47 C1480.93,400.58 1537.67,451.95 1574.32,481.42 " fill="none" id="CriteriaQueryBuilder-backto-DeleteQueryBuilder" style="stroke:#181818;stroke-width:1.0;"/><polygon fill="none" points="1440.74,370.28,1431.79,351.07,1450.77,360.51,1440.74,370.28" style="stroke:#181818;stroke-width:1.0;"/></g><!--MD5=[57b84d43e516f11d0bbb3e33c943043a]
link CriteriaQueryBuilder to DeleteQueryBuilder--><g id="link_CriteriaQueryBuilder_DeleteQueryBuilder"><path codeLine="146" d="M1450.19,351.07 C1491.08,383.71 1556.33,443.22 1589.26,477.75 " fill="none" id="CriteriaQueryBuilder-to-DeleteQueryBuilder" style="stroke:#181818;stroke-width:1.0;"/><polygon fill="#181818" points="1592.73,481.42,1589.4552,472.1315,1589.2956,477.7861,1583.641,477.6265,1592.73,481.42" style="stroke:#181818;stroke-width:1.0;"/></g><!--MD5=[dfe7144765312238e6b4eae03a0bb633]
reverse link FridaQueryBuilder to InsertQueryBuilder--><g id="link_FridaQueryBuilder_InsertQueryBuilder"><path d="M1594.43,219.42 C1592.96,247.56 1593.87,280.85 1597.16,302.64 " fill="none" id="FridaQueryBuilder-backto-InsertQueryBuilder" style="stroke:#181818;stroke-width:1.0;"/><polygon fill="none" points="1587.48,218.57,1596.02,199.18,1601.43,219.66,1587.48,218.57" style="stroke:#181818;stroke-width:1.0;"/></g><!--MD5=[9a05e22f176cfec5b7181421dd6a0cc4]
link FridaQueryBuilder to InsertQueryBuilder--><g id="link_FridaQueryBuilder_InsertQueryBuilder"><path codeLine="141" d="M1617.6,199.18 C1620.95,228.05 1620.79,270.02 1617.12,297.65 " fill="none" id="FridaQueryBuilder-to-InsertQueryBuilder" style="stroke:#181818;stroke-width:1.0;"/><polygon fill="#181818" points="1616.39,302.64,1621.6562,294.3173,1617.1171,297.6931,1613.7412,293.154,1616.39,302.64" style="stroke:#181818;stroke-width:1.0;"/></g><!--MD5=[f881b2573de90f85a8a8330af5294547]
reverse link FridaQueryBuilder to CreateQueryBuilder--><g id="link_FridaQueryBuilder_CreateQueryBuilder"><path d="M1649.43,212.94 C1682.46,242.41 1727.23,279.4 1758.71,302.88 " fill="none" id="FridaQueryBuilder-backto-CreateQueryBuilder" style="stroke:#181818;stroke-width:1.0;"/><polygon fill="none" points="1644.37,217.8,1634.27,199.18,1653.78,207.44,1644.37,217.8" style="stroke:#181818;stroke-width:1.0;"/></g><!--MD5=[8267ff20d200798929233a099711ad76]
link FridaQueryBuilder to CreateQueryBuilder--><g id="link_FridaQueryBuilder_CreateQueryBuilder"><path codeLine="142" d="M1655.84,199.18 C1694.15,228.53 1744.9,271.42 1773.86,299.02 " fill="none" id="FridaQueryBuilder-to-CreateQueryBuilder" style="stroke:#181818;stroke-width:1.0;"/><polygon fill="#181818" points="1777.63,302.64,1773.9279,293.5134,1774.0308,299.1693,1768.3749,299.2722,1777.63,302.64" style="stroke:#181818;stroke-width:1.0;"/></g><!--MD5=[df9c360ed559fa85738ab36b0dadcf81]
link Client to FridaQueryBuilder--><g id="link_Client_FridaQueryBuilder"><path codeLine="139" d="M1657.8,64.03 C1648.67,82 1635.8,107.32 1625.24,128.11 " fill="none" id="Client-to-FridaQueryBuilder" style="stroke:#181818;stroke-width:1.0;"/><polygon fill="#181818" points="1622.89,132.74,1630.5404,126.5374,1625.1603,128.2851,1623.4126,122.905,1622.89,132.74" style="stroke:#181818;stroke-width:1.0;"/></g><!--MD5=[e1a953e3a524a0cf6687fcdd377f020e]
@startuml query_builder


abstract class CriteriaStatement extends Statement{
    Criterion[] criteria
}


CriteriaStatement o- - Criterion

abstract class Statement{
    + String source
}


abstract class Criterion{
    +String criterionOperator
}

abstract class CriterionCompare extends Criterion{

    + String firstField
    + String secondField
}

class Equals extends CriterionCompare{

}

class NotEquals extends CriterionCompare{

}

class Like extends CriterionCompare{

}

abstract class CriterionLogic extends Criterion{

    + Crtiterion[] criteria
}

class And extends CriterionLogic{

}
class Or extends CriterionLogic{

}

enum ColumnDataType{
    integer,
    text,
    real
}

class Create extends Statement{
    + Column[] columns
}

Create *- - Column

class Column{
    String name
    ColumnDataType type
    bool isPrimaryKey
    bool isNotNull
    String? defaultValue
}
Column - -> ColumnDataType


class Delete extends CriteriaStatement{

}

class Update extends CriteriaStatement{
    Map<String, String> values
}


class Select extends CriteriaStatement{
    + String[] columns
    + Join[] joins

}

class Join extends CriteriaStatement {
    +String alias
}

Select o- - Join

class Insert extends Statement{
    + Map<String, String> values
}




interface QueryBuilder{
    + Stirng build()
}



class FridaQueryBuilder implements QueryBuilder{
    + Statement statement
}



class CriteriaQueryBuilder extends FridaQueryBuilder{

}

class SelectQueryBuilder extends CriteriaQueryBuilder{
}

class UpdateQueryBuilder extends CriteriaQueryBuilder{

}

class DeleteQueryBuilder extends CriteriaQueryBuilder{

}
class InsertQueryBuilder extends FridaQueryBuilder{

}


class CreateQueryBuilder extends FridaQueryBuilder{

}




class Client{}

Client - -> FridaQueryBuilder
FridaQueryBuilder - -> CriteriaQueryBuilder
FridaQueryBuilder - -> InsertQueryBuilder
FridaQueryBuilder - -> CreateQueryBuilder

CriteriaQueryBuilder - -> SelectQueryBuilder
CriteriaQueryBuilder - -> UpdateQueryBuilder
CriteriaQueryBuilder - -> DeleteQueryBuilder

@enduml

PlantUML version 1.2022.7(Mon Aug 22 12:01:30 CDT 2022)
(GPL source distribution)
Java Runtime: Java(TM) SE Runtime Environment
JVM: Java HotSpot(TM) 64-Bit Server VM
Default Encoding: Cp1252
Language: es
Country: MX
--></g></svg>