<?xml version="1.0" encoding="UTF-8" standalone="no"?><svg xmlns="http://www.w3.org/2000/svg" xmlns:xlink="http://www.w3.org/1999/xlink" contentStyleType="text/css" height="422px" preserveAspectRatio="none" style="width:873px;height:422px;background:#FFFFFF;" version="1.1" viewBox="0 0 873 422" width="873px" zoomAndPan="magnify"><defs/><g><!--MD5=[fcbf7df592e60eddd287d4afa8f4f07d]
class QueryBuilder--><g id="elem_QueryBuilder"><rect codeLine="2" fill="#F1F1F1" height="65.6094" id="QueryBuilder" rx="2.5" ry="2.5" style="stroke:#181818;stroke-width:0.5;" width="115" x="440.5" y="7"/><ellipse cx="455.5" cy="23" fill="#B4A7E5" rx="11" ry="11" style="stroke:#181818;stroke-width:1.0;"/><path d="M456.4531,19.6406 L456.4531,26.2969 L458.1719,26.2969 Q458.7813,26.2969 459.0469,26.5313 Q459.3125,26.7656 459.3125,27.1563 Q459.3125,27.5313 459.0469,27.7656 Q458.7813,28 458.1719,28 L453.0313,28 Q452.4219,28 452.1563,27.7656 Q451.8906,27.5313 451.8906,27.1406 Q451.8906,26.7656 452.1563,26.5313 Q452.4219,26.2969 453.0313,26.2969 L454.75,26.2969 L454.75,19.6406 L453.0313,19.6406 Q452.4219,19.6406 452.1563,19.4063 Q451.8906,19.1719 451.8906,18.7813 Q451.8906,18.4063 452.1563,18.1719 Q452.4219,17.9375 453.0313,17.9375 L458.1719,17.9375 Q458.7813,17.9375 459.0469,18.1719 Q459.3125,18.4063 459.3125,18.7813 Q459.3125,19.1719 459.0469,19.4063 Q458.7813,19.6406 458.1719,19.6406 L456.4531,19.6406 Z " fill="#000000"/><text fill="#000000" font-family="sans-serif" font-size="14" font-style="italic" lengthAdjust="spacing" textLength="83" x="469.5" y="28.7285">QueryBuilder</text><line style="stroke:#181818;stroke-width:0.5;" x1="441.5" x2="554.5" y1="39" y2="39"/><line style="stroke:#181818;stroke-width:0.5;" x1="441.5" x2="554.5" y1="47" y2="47"/><ellipse cx="451.5" cy="61.3047" fill="#84BE84" rx="3" ry="3" style="stroke:#038048;stroke-width:1.0;"/><text fill="#000000" font-family="sans-serif" font-size="14" lengthAdjust="spacing" textLength="81" x="460.5" y="65.5332">Stirng build()</text></g><!--MD5=[e03ec6affcba7f1417ae505c48dc343e]
class FridaQueryBuilder--><g id="elem_FridaQueryBuilder"><rect codeLine="8" fill="#F1F1F1" height="65.6094" id="FridaQueryBuilder" rx="2.5" ry="2.5" style="stroke:#181818;stroke-width:0.5;" width="156" x="483" y="133"/><ellipse cx="501.6" cy="149" fill="#ADD1B2" rx="11" ry="11" style="stroke:#181818;stroke-width:1.0;"/><path d="M504.3656,144.875 Q504.5219,144.6563 504.7094,144.5469 Q504.8969,144.4375 505.1156,144.4375 Q505.4906,144.4375 505.725,144.7031 Q505.9594,144.9531 505.9594,145.5625 L505.9594,147.0156 Q505.9594,147.625 505.725,147.8906 Q505.4906,148.1563 505.1156,148.1563 Q504.7719,148.1563 504.5688,147.9531 Q504.3656,147.7656 504.2563,147.25 Q504.2094,146.8906 504.0219,146.7031 Q503.6938,146.3281 503.0844,146.1094 Q502.475,145.8906 501.85,145.8906 Q501.0844,145.8906 500.4438,146.2188 Q499.8188,146.5469 499.3188,147.2969 Q498.8344,148.0469 498.8344,149.0781 L498.8344,150.1719 Q498.8344,151.4063 499.725,152.2344 Q500.6156,153.0469 502.2094,153.0469 Q503.1469,153.0469 503.8031,152.7969 Q504.1938,152.6406 504.6156,152.2031 Q504.8813,151.9375 505.0219,151.8594 Q505.1781,151.7813 505.3813,151.7813 Q505.7094,151.7813 505.9594,152.0469 Q506.225,152.2969 506.225,152.6406 Q506.225,152.9844 505.8813,153.3906 Q505.3813,153.9688 504.5844,154.2969 Q503.5063,154.75 502.2094,154.75 Q500.6938,154.75 499.4906,154.125 Q498.5063,153.625 497.8188,152.5625 Q497.1313,151.4844 497.1313,150.2031 L497.1313,149.0469 Q497.1313,147.7188 497.7406,146.5781 Q498.3656,145.4219 499.4594,144.8125 Q500.5531,144.1875 501.7875,144.1875 Q502.5219,144.1875 503.1625,144.3594 Q503.8188,144.5156 504.3656,144.875 Z " fill="#000000"/><text fill="#000000" font-family="sans-serif" font-size="14" lengthAdjust="spacing" textLength="116" x="516.4" y="154.7285">FridaQueryBuilder</text><line style="stroke:#181818;stroke-width:0.5;" x1="484" x2="638" y1="165" y2="165"/><ellipse cx="494" cy="179.3047" fill="none" rx="3" ry="3" style="stroke:#038048;stroke-width:1.0;"/><text fill="#000000" font-family="sans-serif" font-size="14" lengthAdjust="spacing" textLength="130" x="503" y="183.5332">Statement statement</text><line style="stroke:#181818;stroke-width:0.5;" x1="484" x2="638" y1="190.6094" y2="190.6094"/></g><!--MD5=[fbbaaa416156560ff3c46f1bb0e7b360]
class CriteriaQueryBuilder--><g id="elem_CriteriaQueryBuilder"><rect codeLine="14" fill="#F1F1F1" height="48" id="CriteriaQueryBuilder" rx="2.5" ry="2.5" style="stroke:#181818;stroke-width:0.5;" width="161" x="195.5" y="259"/><ellipse cx="210.5" cy="275" fill="#ADD1B2" rx="11" ry="11" style="stroke:#181818;stroke-width:1.0;"/><path d="M213.2656,270.875 Q213.4219,270.6563 213.6094,270.5469 Q213.7969,270.4375 214.0156,270.4375 Q214.3906,270.4375 214.625,270.7031 Q214.8594,270.9531 214.8594,271.5625 L214.8594,273.0156 Q214.8594,273.625 214.625,273.8906 Q214.3906,274.1563 214.0156,274.1563 Q213.6719,274.1563 213.4688,273.9531 Q213.2656,273.7656 213.1563,273.25 Q213.1094,272.8906 212.9219,272.7031 Q212.5938,272.3281 211.9844,272.1094 Q211.375,271.8906 210.75,271.8906 Q209.9844,271.8906 209.3438,272.2188 Q208.7188,272.5469 208.2188,273.2969 Q207.7344,274.0469 207.7344,275.0781 L207.7344,276.1719 Q207.7344,277.4063 208.625,278.2344 Q209.5156,279.0469 211.1094,279.0469 Q212.0469,279.0469 212.7031,278.7969 Q213.0938,278.6406 213.5156,278.2031 Q213.7813,277.9375 213.9219,277.8594 Q214.0781,277.7813 214.2813,277.7813 Q214.6094,277.7813 214.8594,278.0469 Q215.125,278.2969 215.125,278.6406 Q215.125,278.9844 214.7813,279.3906 Q214.2813,279.9688 213.4844,280.2969 Q212.4063,280.75 211.1094,280.75 Q209.5938,280.75 208.3906,280.125 Q207.4063,279.625 206.7188,278.5625 Q206.0313,277.4844 206.0313,276.2031 L206.0313,275.0469 Q206.0313,273.7188 206.6406,272.5781 Q207.2656,271.4219 208.3594,270.8125 Q209.4531,270.1875 210.6875,270.1875 Q211.4219,270.1875 212.0625,270.3594 Q212.7188,270.5156 213.2656,270.875 Z " fill="#000000"/><text fill="#000000" font-family="sans-serif" font-size="14" lengthAdjust="spacing" textLength="129" x="224.5" y="280.7285">CriteriaQueryBuilder</text><line style="stroke:#181818;stroke-width:0.5;" x1="196.5" x2="355.5" y1="291" y2="291"/><line style="stroke:#181818;stroke-width:0.5;" x1="196.5" x2="355.5" y1="299" y2="299"/></g><!--MD5=[8319fef28745a37d69513ce2a56d0fd0]
class SelectQueryBuilder--><g id="elem_SelectQueryBuilder"><rect codeLine="18" fill="#F1F1F1" height="48" id="SelectQueryBuilder" rx="2.5" ry="2.5" style="stroke:#181818;stroke-width:0.5;" width="154" x="7" y="367"/><ellipse cx="22" cy="383" fill="#ADD1B2" rx="11" ry="11" style="stroke:#181818;stroke-width:1.0;"/><path d="M24.7656,378.875 Q24.9219,378.6563 25.1094,378.5469 Q25.2969,378.4375 25.5156,378.4375 Q25.8906,378.4375 26.125,378.7031 Q26.3594,378.9531 26.3594,379.5625 L26.3594,381.0156 Q26.3594,381.625 26.125,381.8906 Q25.8906,382.1563 25.5156,382.1563 Q25.1719,382.1563 24.9688,381.9531 Q24.7656,381.7656 24.6563,381.25 Q24.6094,380.8906 24.4219,380.7031 Q24.0938,380.3281 23.4844,380.1094 Q22.875,379.8906 22.25,379.8906 Q21.4844,379.8906 20.8438,380.2188 Q20.2188,380.5469 19.7188,381.2969 Q19.2344,382.0469 19.2344,383.0781 L19.2344,384.1719 Q19.2344,385.4063 20.125,386.2344 Q21.0156,387.0469 22.6094,387.0469 Q23.5469,387.0469 24.2031,386.7969 Q24.5938,386.6406 25.0156,386.2031 Q25.2813,385.9375 25.4219,385.8594 Q25.5781,385.7813 25.7813,385.7813 Q26.1094,385.7813 26.3594,386.0469 Q26.625,386.2969 26.625,386.6406 Q26.625,386.9844 26.2813,387.3906 Q25.7813,387.9688 24.9844,388.2969 Q23.9063,388.75 22.6094,388.75 Q21.0938,388.75 19.8906,388.125 Q18.9063,387.625 18.2188,386.5625 Q17.5313,385.4844 17.5313,384.2031 L17.5313,383.0469 Q17.5313,381.7188 18.1406,380.5781 Q18.7656,379.4219 19.8594,378.8125 Q20.9531,378.1875 22.1875,378.1875 Q22.9219,378.1875 23.5625,378.3594 Q24.2188,378.5156 24.7656,378.875 Z " fill="#000000"/><text fill="#000000" font-family="sans-serif" font-size="14" lengthAdjust="spacing" textLength="122" x="36" y="388.7285">SelectQueryBuilder</text><line style="stroke:#181818;stroke-width:0.5;" x1="8" x2="160" y1="399" y2="399"/><line style="stroke:#181818;stroke-width:0.5;" x1="8" x2="160" y1="407" y2="407"/></g><!--MD5=[d092fc8866b15d395844f28351c6b1d8]
class UpdateQueryBuilder--><g id="elem_UpdateQueryBuilder"><rect codeLine="21" fill="#F1F1F1" height="48" id="UpdateQueryBuilder" rx="2.5" ry="2.5" style="stroke:#181818;stroke-width:0.5;" width="160" x="196" y="367"/><ellipse cx="211" cy="383" fill="#ADD1B2" rx="11" ry="11" style="stroke:#181818;stroke-width:1.0;"/><path d="M213.7656,378.875 Q213.9219,378.6563 214.1094,378.5469 Q214.2969,378.4375 214.5156,378.4375 Q214.8906,378.4375 215.125,378.7031 Q215.3594,378.9531 215.3594,379.5625 L215.3594,381.0156 Q215.3594,381.625 215.125,381.8906 Q214.8906,382.1563 214.5156,382.1563 Q214.1719,382.1563 213.9688,381.9531 Q213.7656,381.7656 213.6563,381.25 Q213.6094,380.8906 213.4219,380.7031 Q213.0938,380.3281 212.4844,380.1094 Q211.875,379.8906 211.25,379.8906 Q210.4844,379.8906 209.8438,380.2188 Q209.2188,380.5469 208.7188,381.2969 Q208.2344,382.0469 208.2344,383.0781 L208.2344,384.1719 Q208.2344,385.4063 209.125,386.2344 Q210.0156,387.0469 211.6094,387.0469 Q212.5469,387.0469 213.2031,386.7969 Q213.5938,386.6406 214.0156,386.2031 Q214.2813,385.9375 214.4219,385.8594 Q214.5781,385.7813 214.7813,385.7813 Q215.1094,385.7813 215.3594,386.0469 Q215.625,386.2969 215.625,386.6406 Q215.625,386.9844 215.2813,387.3906 Q214.7813,387.9688 213.9844,388.2969 Q212.9063,388.75 211.6094,388.75 Q210.0938,388.75 208.8906,388.125 Q207.9063,387.625 207.2188,386.5625 Q206.5313,385.4844 206.5313,384.2031 L206.5313,383.0469 Q206.5313,381.7188 207.1406,380.5781 Q207.7656,379.4219 208.8594,378.8125 Q209.9531,378.1875 211.1875,378.1875 Q211.9219,378.1875 212.5625,378.3594 Q213.2188,378.5156 213.7656,378.875 Z " fill="#000000"/><text fill="#000000" font-family="sans-serif" font-size="14" lengthAdjust="spacing" textLength="128" x="225" y="388.7285">UpdateQueryBuilder</text><line style="stroke:#181818;stroke-width:0.5;" x1="197" x2="355" y1="399" y2="399"/><line style="stroke:#181818;stroke-width:0.5;" x1="197" x2="355" y1="407" y2="407"/></g><!--MD5=[b408fe1dddc4ab9fa340aa81f78ae5ed]
class DeleteQueryBuilder--><g id="elem_DeleteQueryBuilder"><rect codeLine="25" fill="#F1F1F1" height="48" id="DeleteQueryBuilder" rx="2.5" ry="2.5" style="stroke:#181818;stroke-width:0.5;" width="156" x="391" y="367"/><ellipse cx="406" cy="383" fill="#ADD1B2" rx="11" ry="11" style="stroke:#181818;stroke-width:1.0;"/><path d="M408.7656,378.875 Q408.9219,378.6563 409.1094,378.5469 Q409.2969,378.4375 409.5156,378.4375 Q409.8906,378.4375 410.125,378.7031 Q410.3594,378.9531 410.3594,379.5625 L410.3594,381.0156 Q410.3594,381.625 410.125,381.8906 Q409.8906,382.1563 409.5156,382.1563 Q409.1719,382.1563 408.9688,381.9531 Q408.7656,381.7656 408.6563,381.25 Q408.6094,380.8906 408.4219,380.7031 Q408.0938,380.3281 407.4844,380.1094 Q406.875,379.8906 406.25,379.8906 Q405.4844,379.8906 404.8438,380.2188 Q404.2188,380.5469 403.7188,381.2969 Q403.2344,382.0469 403.2344,383.0781 L403.2344,384.1719 Q403.2344,385.4063 404.125,386.2344 Q405.0156,387.0469 406.6094,387.0469 Q407.5469,387.0469 408.2031,386.7969 Q408.5938,386.6406 409.0156,386.2031 Q409.2813,385.9375 409.4219,385.8594 Q409.5781,385.7813 409.7813,385.7813 Q410.1094,385.7813 410.3594,386.0469 Q410.625,386.2969 410.625,386.6406 Q410.625,386.9844 410.2813,387.3906 Q409.7813,387.9688 408.9844,388.2969 Q407.9063,388.75 406.6094,388.75 Q405.0938,388.75 403.8906,388.125 Q402.9063,387.625 402.2188,386.5625 Q401.5313,385.4844 401.5313,384.2031 L401.5313,383.0469 Q401.5313,381.7188 402.1406,380.5781 Q402.7656,379.4219 403.8594,378.8125 Q404.9531,378.1875 406.1875,378.1875 Q406.9219,378.1875 407.5625,378.3594 Q408.2188,378.5156 408.7656,378.875 Z " fill="#000000"/><text fill="#000000" font-family="sans-serif" font-size="14" lengthAdjust="spacing" textLength="124" x="420" y="388.7285">DeleteQueryBuilder</text><line style="stroke:#181818;stroke-width:0.5;" x1="392" x2="546" y1="399" y2="399"/><line style="stroke:#181818;stroke-width:0.5;" x1="392" x2="546" y1="407" y2="407"/></g><!--MD5=[7e2902794903237e18c34b3a470c65c7]
class InsertQueryBuilder--><g id="elem_InsertQueryBuilder"><rect codeLine="28" fill="#F1F1F1" height="48" id="InsertQueryBuilder" rx="2.5" ry="2.5" style="stroke:#181818;stroke-width:0.5;" width="150" x="392" y="259"/><ellipse cx="407" cy="275" fill="#ADD1B2" rx="11" ry="11" style="stroke:#181818;stroke-width:1.0;"/><path d="M409.7656,270.875 Q409.9219,270.6563 410.1094,270.5469 Q410.2969,270.4375 410.5156,270.4375 Q410.8906,270.4375 411.125,270.7031 Q411.3594,270.9531 411.3594,271.5625 L411.3594,273.0156 Q411.3594,273.625 411.125,273.8906 Q410.8906,274.1563 410.5156,274.1563 Q410.1719,274.1563 409.9688,273.9531 Q409.7656,273.7656 409.6563,273.25 Q409.6094,272.8906 409.4219,272.7031 Q409.0938,272.3281 408.4844,272.1094 Q407.875,271.8906 407.25,271.8906 Q406.4844,271.8906 405.8438,272.2188 Q405.2188,272.5469 404.7188,273.2969 Q404.2344,274.0469 404.2344,275.0781 L404.2344,276.1719 Q404.2344,277.4063 405.125,278.2344 Q406.0156,279.0469 407.6094,279.0469 Q408.5469,279.0469 409.2031,278.7969 Q409.5938,278.6406 410.0156,278.2031 Q410.2813,277.9375 410.4219,277.8594 Q410.5781,277.7813 410.7813,277.7813 Q411.1094,277.7813 411.3594,278.0469 Q411.625,278.2969 411.625,278.6406 Q411.625,278.9844 411.2813,279.3906 Q410.7813,279.9688 409.9844,280.2969 Q408.9063,280.75 407.6094,280.75 Q406.0938,280.75 404.8906,280.125 Q403.9063,279.625 403.2188,278.5625 Q402.5313,277.4844 402.5313,276.2031 L402.5313,275.0469 Q402.5313,273.7188 403.1406,272.5781 Q403.7656,271.4219 404.8594,270.8125 Q405.9531,270.1875 407.1875,270.1875 Q407.9219,270.1875 408.5625,270.3594 Q409.2188,270.5156 409.7656,270.875 Z " fill="#000000"/><text fill="#000000" font-family="sans-serif" font-size="14" lengthAdjust="spacing" textLength="118" x="421" y="280.7285">InsertQueryBuilder</text><line style="stroke:#181818;stroke-width:0.5;" x1="393" x2="541" y1="291" y2="291"/><line style="stroke:#181818;stroke-width:0.5;" x1="393" x2="541" y1="299" y2="299"/></g><!--MD5=[b13fe6db246a6b83ff255ce7b048df8f]
class CreateQueryBuilder--><g id="elem_CreateQueryBuilder"><rect codeLine="33" fill="#F1F1F1" height="48" id="CreateQueryBuilder" rx="2.5" ry="2.5" style="stroke:#181818;stroke-width:0.5;" width="158" x="577" y="259"/><ellipse cx="592" cy="275" fill="#ADD1B2" rx="11" ry="11" style="stroke:#181818;stroke-width:1.0;"/><path d="M594.7656,270.875 Q594.9219,270.6563 595.1094,270.5469 Q595.2969,270.4375 595.5156,270.4375 Q595.8906,270.4375 596.125,270.7031 Q596.3594,270.9531 596.3594,271.5625 L596.3594,273.0156 Q596.3594,273.625 596.125,273.8906 Q595.8906,274.1563 595.5156,274.1563 Q595.1719,274.1563 594.9688,273.9531 Q594.7656,273.7656 594.6563,273.25 Q594.6094,272.8906 594.4219,272.7031 Q594.0938,272.3281 593.4844,272.1094 Q592.875,271.8906 592.25,271.8906 Q591.4844,271.8906 590.8438,272.2188 Q590.2188,272.5469 589.7188,273.2969 Q589.2344,274.0469 589.2344,275.0781 L589.2344,276.1719 Q589.2344,277.4063 590.125,278.2344 Q591.0156,279.0469 592.6094,279.0469 Q593.5469,279.0469 594.2031,278.7969 Q594.5938,278.6406 595.0156,278.2031 Q595.2813,277.9375 595.4219,277.8594 Q595.5781,277.7813 595.7813,277.7813 Q596.1094,277.7813 596.3594,278.0469 Q596.625,278.2969 596.625,278.6406 Q596.625,278.9844 596.2813,279.3906 Q595.7813,279.9688 594.9844,280.2969 Q593.9063,280.75 592.6094,280.75 Q591.0938,280.75 589.8906,280.125 Q588.9063,279.625 588.2188,278.5625 Q587.5313,277.4844 587.5313,276.2031 L587.5313,275.0469 Q587.5313,273.7188 588.1406,272.5781 Q588.7656,271.4219 589.8594,270.8125 Q590.9531,270.1875 592.1875,270.1875 Q592.9219,270.1875 593.5625,270.3594 Q594.2188,270.5156 594.7656,270.875 Z " fill="#000000"/><text fill="#000000" font-family="sans-serif" font-size="14" lengthAdjust="spacing" textLength="126" x="606" y="280.7285">CreateQueryBuilder</text><line style="stroke:#181818;stroke-width:0.5;" x1="578" x2="734" y1="291" y2="291"/><line style="stroke:#181818;stroke-width:0.5;" x1="578" x2="734" y1="299" y2="299"/></g><!--MD5=[a61a298976b7d1d94498f45c2ebfa10b]
class Statement--><g id="elem_Statement"><rect codeLine="37" fill="#F1F1F1" height="48" id="Statement" rx="2.5" ry="2.5" style="stroke:#181818;stroke-width:0.5;" width="96" x="770" y="259"/><ellipse cx="785" cy="275" fill="#A9DCDF" rx="11" ry="11" style="stroke:#181818;stroke-width:1.0;"/><path d="M787.1875,276.7656 L783.0469,276.7656 L782.625,277.7969 L783.0469,277.7969 Q783.6563,277.7969 783.9219,278.0313 Q784.1875,278.2656 784.1875,278.6563 Q784.1875,279.0313 783.9219,279.2656 Q783.6563,279.5 783.0469,279.5 L780.75,279.5 Q780.1406,279.5 779.8906,279.2656 Q779.625,279.0313 779.625,278.6406 Q779.625,278.2656 779.9063,278.0313 Q780.1719,277.7813 780.7969,277.7969 L783.4688,271.1406 L782.3594,271.1406 Q781.75,271.1406 781.4844,270.9063 Q781.2188,270.6719 781.2188,270.2813 Q781.2188,269.9063 781.4844,269.6719 Q781.75,269.4375 782.3594,269.4375 L786.0313,269.4375 L789.4219,277.7969 Q790.0156,277.7969 790.2031,277.9375 Q790.5938,278.2031 790.5938,278.6563 Q790.5938,279.0313 790.3281,279.2656 Q790.0781,279.5 789.4688,279.5 L787.1719,279.5 Q786.5625,279.5 786.2969,279.2656 Q786.0313,279.0313 786.0313,278.6406 Q786.0313,278.2656 786.2969,278.0313 Q786.5625,277.7969 787.1719,277.7969 L787.5938,277.7969 L787.1875,276.7656 Z M786.4688,275.0625 L785.1094,271.6875 L783.7344,275.0625 L786.4688,275.0625 Z " fill="#000000"/><text fill="#000000" font-family="sans-serif" font-size="14" font-style="italic" lengthAdjust="spacing" textLength="64" x="799" y="280.7285">Statement</text><line style="stroke:#181818;stroke-width:0.5;" x1="771" x2="865" y1="291" y2="291"/><line style="stroke:#181818;stroke-width:0.5;" x1="771" x2="865" y1="299" y2="299"/></g><!--MD5=[ed6624c6556d5e7b1bd23032162d20b7]
class Client--><g id="elem_Client"><rect codeLine="39" fill="#F1F1F1" height="48" id="Client" rx="2.5" ry="2.5" style="stroke:#181818;stroke-width:0.5;" width="68" x="591" y="16"/><ellipse cx="606" cy="32" fill="#ADD1B2" rx="11" ry="11" style="stroke:#181818;stroke-width:1.0;"/><path d="M608.7656,27.875 Q608.9219,27.6563 609.1094,27.5469 Q609.2969,27.4375 609.5156,27.4375 Q609.8906,27.4375 610.125,27.7031 Q610.3594,27.9531 610.3594,28.5625 L610.3594,30.0156 Q610.3594,30.625 610.125,30.8906 Q609.8906,31.1563 609.5156,31.1563 Q609.1719,31.1563 608.9688,30.9531 Q608.7656,30.7656 608.6563,30.25 Q608.6094,29.8906 608.4219,29.7031 Q608.0938,29.3281 607.4844,29.1094 Q606.875,28.8906 606.25,28.8906 Q605.4844,28.8906 604.8438,29.2188 Q604.2188,29.5469 603.7188,30.2969 Q603.2344,31.0469 603.2344,32.0781 L603.2344,33.1719 Q603.2344,34.4063 604.125,35.2344 Q605.0156,36.0469 606.6094,36.0469 Q607.5469,36.0469 608.2031,35.7969 Q608.5938,35.6406 609.0156,35.2031 Q609.2813,34.9375 609.4219,34.8594 Q609.5781,34.7813 609.7813,34.7813 Q610.1094,34.7813 610.3594,35.0469 Q610.625,35.2969 610.625,35.6406 Q610.625,35.9844 610.2813,36.3906 Q609.7813,36.9688 608.9844,37.2969 Q607.9063,37.75 606.6094,37.75 Q605.0938,37.75 603.8906,37.125 Q602.9063,36.625 602.2188,35.5625 Q601.5313,34.4844 601.5313,33.2031 L601.5313,32.0469 Q601.5313,30.7188 602.1406,29.5781 Q602.7656,28.4219 603.8594,27.8125 Q604.9531,27.1875 606.1875,27.1875 Q606.9219,27.1875 607.5625,27.3594 Q608.2188,27.5156 608.7656,27.875 Z " fill="#000000"/><text fill="#000000" font-family="sans-serif" font-size="14" lengthAdjust="spacing" textLength="36" x="620" y="37.7285">Client</text><line style="stroke:#181818;stroke-width:0.5;" x1="592" x2="658" y1="48" y2="48"/><line style="stroke:#181818;stroke-width:0.5;" x1="592" x2="658" y1="56" y2="56"/></g><!--MD5=[bc50a54c508a79624b623e6c22b79872]
reverse link QueryBuilder to FridaQueryBuilder--><g id="link_QueryBuilder_FridaQueryBuilder"><path d="M523.68,91.54 C530.78,105.51 538.29,120.29 544.69,132.91 " fill="none" id="QueryBuilder-backto-FridaQueryBuilder" style="stroke:#181818;stroke-width:1.0;stroke-dasharray:7.0,7.0;"/><polygon fill="none" points="517.21,94.26,514.39,73.26,529.69,87.92,517.21,94.26" style="stroke:#181818;stroke-width:1.0;"/></g><!--MD5=[0263d0ec9fd8943261c45f61036f8f43]
reverse link FridaQueryBuilder to CriteriaQueryBuilder--><g id="link_FridaQueryBuilder_CriteriaQueryBuilder"><path d="M463.92,206.17 C420.45,223.71 370.68,243.79 333.29,258.88 " fill="none" id="FridaQueryBuilder-backto-CriteriaQueryBuilder" style="stroke:#181818;stroke-width:1.0;"/><polygon fill="none" points="461.58,199.57,482.75,198.58,466.82,212.55,461.58,199.57" style="stroke:#181818;stroke-width:1.0;"/></g><!--MD5=[6beaa51da90666732830e94133a80798]
reverse link CriteriaQueryBuilder to SelectQueryBuilder--><g id="link_CriteriaQueryBuilder_SelectQueryBuilder"><path d="M216.42,316.89 C187.08,333.09 152.42,352.23 125.91,366.86 " fill="none" id="CriteriaQueryBuilder-backto-SelectQueryBuilder" style="stroke:#181818;stroke-width:1.0;"/><polygon fill="none" points="213.45,310.54,234.34,307,220.21,322.79,213.45,310.54" style="stroke:#181818;stroke-width:1.0;"/></g><!--MD5=[74dac402acb26024029ed89c263f7053]
reverse link CriteriaQueryBuilder to UpdateQueryBuilder--><g id="link_CriteriaQueryBuilder_UpdateQueryBuilder"><path d="M276,327.02 C276,340.58 276,355.04 276,366.68 " fill="none" id="CriteriaQueryBuilder-backto-UpdateQueryBuilder" style="stroke:#181818;stroke-width:1.0;"/><polygon fill="none" points="269,327,276,307,283,327,269,327" style="stroke:#181818;stroke-width:1.0;"/></g><!--MD5=[21c761ff2780bfcb7ba7a48ac6bd7862]
reverse link CriteriaQueryBuilder to DeleteQueryBuilder--><g id="link_CriteriaQueryBuilder_DeleteQueryBuilder"><path d="M335.47,316.66 C365.05,332.91 400.1,352.16 426.87,366.86 " fill="none" id="CriteriaQueryBuilder-backto-DeleteQueryBuilder" style="stroke:#181818;stroke-width:1.0;"/><polygon fill="none" points="332.04,322.76,317.88,307,338.78,310.49,332.04,322.76" style="stroke:#181818;stroke-width:1.0;"/></g><!--MD5=[dfe7144765312238e6b4eae03a0bb633]
reverse link FridaQueryBuilder to InsertQueryBuilder--><g id="link_FridaQueryBuilder_InsertQueryBuilder"><path d="M521.8,214.96 C509.38,230.15 496.21,246.27 485.89,258.89 " fill="none" id="FridaQueryBuilder-backto-InsertQueryBuilder" style="stroke:#181818;stroke-width:1.0;"/><polygon fill="none" points="516.74,210.09,534.82,199.03,527.58,218.95,516.74,210.09" style="stroke:#181818;stroke-width:1.0;"/></g><!--MD5=[f881b2573de90f85a8a8330af5294547]
reverse link FridaQueryBuilder to CreateQueryBuilder--><g id="link_FridaQueryBuilder_CreateQueryBuilder"><path d="M600.22,214.47 C612.89,229.81 626.37,246.13 636.91,258.89 " fill="none" id="FridaQueryBuilder-backto-CreateQueryBuilder" style="stroke:#181818;stroke-width:1.0;"/><polygon fill="none" points="594.8,218.91,587.46,199.03,605.6,209.99,594.8,218.91" style="stroke:#181818;stroke-width:1.0;"/></g><!--MD5=[df9c360ed559fa85738ab36b0dadcf81]
link Client to FridaQueryBuilder--><g id="link_Client_FridaQueryBuilder"><path codeLine="41" d="M613.11,64.03 C603.84,82 590.77,107.32 580.04,128.11 " fill="none" id="Client-to-FridaQueryBuilder" style="stroke:#181818;stroke-width:1.0;"/><polygon fill="#181818" points="577.65,132.74,585.3242,126.5669,579.9374,128.2939,578.2104,122.9071,577.65,132.74" style="stroke:#181818;stroke-width:1.0;"/></g><!--MD5=[e8cab90aff3fc9916a35f51ed04d225d]
reverse link FridaQueryBuilder to Statement--><g id="link_FridaQueryBuilder_Statement"><path codeLine="43" d="M644.65,204.43 C686.13,222.99 734.75,244.75 769.93,260.49 " fill="none" id="FridaQueryBuilder-backto-Statement" style="stroke:#181818;stroke-width:1.0;"/><polygon fill="#181818" points="632.59,199.03,636.4381,205.1285,643.5476,203.922,639.6995,197.8235,632.59,199.03" style="stroke:#181818;stroke-width:1.0;"/></g><!--MD5=[00a297ec534580dee1365c475cb4dbe0]
@startuml builder_classes

interface QueryBuilder{
    + Stirng build()
}



class FridaQueryBuilder implements QueryBuilder{
    + Statement statement
}



class CriteriaQueryBuilder extends FridaQueryBuilder{

}

class SelectQueryBuilder extends CriteriaQueryBuilder{
}

class UpdateQueryBuilder extends CriteriaQueryBuilder{

}

class DeleteQueryBuilder extends CriteriaQueryBuilder{

}
class InsertQueryBuilder extends FridaQueryBuilder{

}


class CreateQueryBuilder extends FridaQueryBuilder{

}

abstract class Statement{}

class Client{}

Client - -> FridaQueryBuilder
 
FridaQueryBuilder *- - Statement

@enduml

PlantUML version 1.2022.7(Mon Aug 22 12:01:30 CDT 2022)
(GPL source distribution)
Java Runtime: Java(TM) SE Runtime Environment
JVM: Java HotSpot(TM) 64-Bit Server VM
Default Encoding: Cp1252
Language: es
Country: MX
--></g></svg>